<svg xmlns = "http://www.w3.org/2000/svg" width = "1000" height = "1000">
<g>
<polygon points = "840.568, 3.544 797.457, 1.557 794.623, 0.000 845.029, 0.000 " fill = "none" stroke = "black"/>
</g>
<g>
<polygon points = "" fill = "none" stroke = "black"/>
</g>
<g>
<polygon points = "17.322, 163.756 62.694, 276.196 44.908, 305.313 0.000, 252.432 0.000, 163.099 " fill = "none" stroke = "black"/>
</g>
<g>
<polygon points = "1.843, 961.397 4.591, 1000.000 1.821, 1000.000 0.000, 998.496 0.000, 961.203 " fill = "none" stroke = "black"/>
</g>
<g>
<polygon points = "1.821, 1000.000 0.000, 1000.000 0.000, 998.496 " fill = "none" stroke = "black"/>
</g>
<g>
<polygon points = "294.969, 952.259 348.817, 856.727 583.580, 918.570 608.514, 999.133 484.823, 1000.000 316.096, 1000.000 309.485, 996.742 " fill = "none" stroke = "black"/>
</g>
<g>
<polygon points = "" fill = "none" stroke = "black"/>
</g>
<g>
<polygon points = "695.474, 5.539 584.601, 36.158 201.595, 64.882 204.081, 41.956 217.382, 28.284 261.529, 19.013 363.354, 4.336 521.133, 0.000 641.868, 0.000 " fill = "none" stroke = "black"/>
</g>
<g>
<polygon points = "997.666, 142.683 1000.000, 113.100 1000.000, 149.555 " fill = "none" stroke = "black"/>
</g>
<g>
<polygon points = "59.185, 2.889 22.330, 10.731 14.203, 0.000 57.203, 0.000 " fill = "none" stroke = "black"/>
</g>
<g>
<polygon points = "995.359, 819.720 978.234, 818.337 980.790, 721.021 990.930, 652.489 1000.000, 665.294 1000.000, 809.019 " fill = "none" stroke = "black"/>
</g>
<g>
<polygon points = "608.514, 999.133 614.272, 1000.000 484.823, 1000.000 " fill = "none" stroke = "black"/>
</g>
<g>
<polygon points = "309.485, 996.742 316.096, 1000.000 256.241, 1000.000 " fill = "none" stroke = "black"/>
</g>
<g>
<polygon points = "898.592, 16.501 873.066, 23.320 840.568, 3.544 845.029, 0.000 921.314, 0.000 " fill = "none" stroke = "black"/>
</g>
<g>
<polygon points = "997.666, 142.683 967.289, 110.626 993.069, 28.551 1000.000, 24.063 1000.000, 113.100 " fill = "none" stroke = "black"/>
</g>
<g>
<polygon points = "970.197, 949.834 940.234, 1000.000 747.531, 1000.000 961.156, 934.823 " fill = "none" stroke = "black"/>
</g>
<g>
<polygon points = "" fill = "none" stroke = "black"/>
</g>
<g>
<polygon points = "695.474, 5.539 641.868, 0.000 794.623, 0.000 797.457, 1.557 " fill = "none" stroke = "black"/>
</g>
<g>
<polygon points = "" fill = "none" stroke = "black"/>
</g>
<g>
<polygon points = "" fill = "none" stroke = "black"/>
</g>
<g>
<polygon points = "" fill = "none" stroke = "black"/>
</g>
<g>
<polygon points = "995.359, 819.720 1000.000, 809.019 1000.000, 838.364 " fill = "none" stroke = "black"/>
</g>
<g>
<polygon points = "65.933, 7.988 13.489, 34.959 7.218, 26.482 22.330, 10.731 59.185, 2.889 " fill = "none" stroke = "black"/>
</g>
<g>
<polygon points = "1.985, 884.382 0.000, 893.410 0.000, 863.265 " fill = "none" stroke = "black"/>
</g>
<g>
<polygon points = "28.361, 340.918 0.000, 367.667 0.000, 302.137 " fill = "none" stroke = "black"/>
</g>
<g>
<polygon points = "" fill = "none" stroke = "black"/>
</g>
<g>
<polygon points = "" fill = "none" stroke = "black"/>
</g>
<g>
<polygon points = "" fill = "none" stroke = "black"/>
</g>
<g>
<polygon points = "" fill = "none" stroke = "black"/>
</g>
<g>
<polygon points = "499.543, 479.540 980.790, 721.021 978.234, 818.337 964.430, 852.859 955.669, 867.540 403.160, 631.535 402.799, 488.236 " fill = "none" stroke = "black"/>
</g>
<g>
<polygon points = "" fill = "none" stroke = "black"/>
</g>
<g>
<polygon points = "" fill = "none" stroke = "black"/>
</g>
<g>
<polygon points = "" fill = "none" stroke = "black"/>
</g>
<g>
<polygon points = "" fill = "none" stroke = "black"/>
</g>
<g>
<polygon points = "" fill = "none" stroke = "black"/>
</g>
<g>
<polygon points = "954.719, 869.978 961.156, 934.823 747.531, 1000.000 614.272, 1000.000 608.514, 999.133 583.580, 918.570 " fill = "none" stroke = "black"/>
</g>
<g>
<polygon points = "132.702, 198.993 203.359, 217.098 402.799, 488.236 403.160, 631.535 321.369, 775.120 8.374, 453.804 7.821, 451.057 31.470, 341.647 44.908, 305.313 62.694, 276.196 " fill = "none" stroke = "black"/>
</g>
<g>
<polygon points = "788.764, 268.723 989.682, 619.834 990.930, 652.489 980.790, 721.021 499.543, 479.540 " fill = "none" stroke = "black"/>
</g>
<g>
<polygon points = "321.369, 775.120 403.160, 631.535 955.669, 867.540 954.719, 869.978 583.580, 918.570 348.817, 856.727 " fill = "none" stroke = "black"/>
</g>
<g>
<polygon points = "873.066, 23.320 881.282, 97.278 772.224, 188.272 459.879, 185.007 584.601, 36.158 695.474, 5.539 797.457, 1.557 840.568, 3.544 " fill = "none" stroke = "black"/>
</g>
<g>
<polygon points = "79.726, 10.028 65.933, 7.988 59.185, 2.889 57.203, 0.000 85.451, 0.000 " fill = "none" stroke = "black"/>
</g>
<g>
<polygon points = "14.408, 55.025 40.714, 96.839 17.322, 163.756 0.000, 163.099 0.000, 65.479 " fill = "none" stroke = "black"/>
</g>
<g>
<polygon points = "997.139, 562.823 885.702, 99.132 967.289, 110.626 997.666, 142.683 1000.000, 149.555 1000.000, 523.782 " fill = "none" stroke = "black"/>
</g>
<g>
<polygon points = "44.908, 305.313 31.470, 341.647 28.361, 340.918 0.000, 302.137 0.000, 252.432 " fill = "none" stroke = "black"/>
</g>
<g>
<polygon points = "40.714, 96.839 92.736, 122.820 132.637, 175.976 132.702, 198.993 62.694, 276.196 17.322, 163.756 " fill = "none" stroke = "black"/>
</g>
<g>
<polygon points = "210.387, 3.034 205.951, 3.019 172.818, 0.000 213.881, 0.000 " fill = "none" stroke = "black"/>
</g>
<g>
<polygon points = "" fill = "none" stroke = "black"/>
</g>
<g>
<polygon points = "459.879, 185.007 772.224, 188.272 788.764, 268.723 499.543, 479.540 402.799, 488.236 203.359, 217.098 " fill = "none" stroke = "black"/>
</g>
<g>
<polygon points = "0.000, 4.000 0.000, 0.000 0.771, 0.000 " fill = "none" stroke = "black"/>
</g>
<g>
<polygon points = "7.218, 26.482 13.489, 34.959 14.408, 55.025 0.000, 65.479 0.000, 20.424 " fill = "none" stroke = "black"/>
</g>
<g>
<polygon points = "" fill = "none" stroke = "black"/>
</g>
<g>
<polygon points = "7.821, 451.057 8.374, 453.804 2.124, 614.601 0.000, 637.864 0.000, 450.686 " fill = "none" stroke = "black"/>
</g>
<g>
<polygon points = "" fill = "none" stroke = "black"/>
</g>
<g>
<polygon points = "990.930, 652.489 989.682, 619.834 996.749, 576.289 1000.000, 583.515 1000.000, 665.294 " fill = "none" stroke = "black"/>
</g>
<g>
<polygon points = "" fill = "none" stroke = "black"/>
</g>
<g>
<polygon points = "" fill = "none" stroke = "black"/>
</g>
<g>
<polygon points = "" fill = "none" stroke = "black"/>
</g>
<g>
<polygon points = "" fill = "none" stroke = "black"/>
</g>
<g>
<polygon points = "" fill = "none" stroke = "black"/>
</g>
<g>
<polygon points = "" fill = "none" stroke = "black"/>
</g>
<g>
<polygon points = "2.124, 614.601 290.710, 951.645 20.151, 950.756 17.559, 947.955 1.985, 884.382 0.000, 863.265 0.000, 637.864 " fill = "none" stroke = "black"/>
</g>
<g>
<polygon points = "998.055, 997.727 996.509, 994.313 996.436, 981.363 999.394, 981.608 1000.000, 984.851 1000.000, 996.746 " fill = "none" stroke = "black"/>
</g>
<g>
<polygon points = "87.852, 15.464 131.281, 16.950 204.081, 41.956 201.595, 64.882 132.637, 175.976 92.736, 122.820 " fill = "none" stroke = "black"/>
</g>
<g>
<polygon points = "290.710, 951.645 2.124, 614.601 8.374, 453.804 321.369, 775.120 348.817, 856.727 294.969, 952.259 " fill = "none" stroke = "black"/>
</g>
<g>
<polygon points = "981.716, 957.750 993.479, 978.462 962.403, 1000.000 940.234, 1000.000 970.197, 949.834 " fill = "none" stroke = "black"/>
</g>
<g>
<polygon points = "999.394, 981.608 1000.000, 981.322 1000.000, 984.851 " fill = "none" stroke = "black"/>
</g>
<g>
<polygon points = "137.857, 10.579 131.281, 16.950 87.852, 15.464 79.726, 10.028 85.451, 0.000 126.671, 0.000 " fill = "none" stroke = "black"/>
</g>
<g>
<polygon points = "" fill = "none" stroke = "black"/>
</g>
<g>
<polygon points = "996.127, 943.738 981.716, 957.750 970.197, 949.834 961.156, 934.823 954.719, 869.978 955.669, 867.540 964.430, 852.859 1000.000, 904.524 1000.000, 931.667 " fill = "none" stroke = "black"/>
</g>
<g>
<polygon points = "" fill = "none" stroke = "black"/>
</g>
<g>
<polygon points = "" fill = "none" stroke = "black"/>
</g>
<g>
<polygon points = "24.402, 964.206 71.272, 1000.000 8.814, 1000.000 " fill = "none" stroke = "black"/>
</g>
<g>
<polygon points = "137.857, 10.579 205.951, 3.019 210.387, 3.034 217.382, 28.284 204.081, 41.956 131.281, 16.950 " fill = "none" stroke = "black"/>
</g>
<g>
<polygon points = "993.479, 978.462 996.436, 981.363 996.509, 994.313 972.275, 1000.000 962.403, 1000.000 " fill = "none" stroke = "black"/>
</g>
<g>
<polygon points = "20.151, 950.756 290.710, 951.645 294.969, 952.259 309.485, 996.742 256.241, 1000.000 71.272, 1000.000 24.402, 964.206 " fill = "none" stroke = "black"/>
</g>
<g>
<polygon points = "964.430, 852.859 978.234, 818.337 995.359, 819.720 1000.000, 838.364 1000.000, 904.524 " fill = "none" stroke = "black"/>
</g>
<g>
<polygon points = "" fill = "none" stroke = "black"/>
</g>
<g>
<polygon points = "261.529, 19.013 217.382, 28.284 210.387, 3.034 213.881, 0.000 262.335, 0.000 " fill = "none" stroke = "black"/>
</g>
<g>
<polygon points = "0.000, 19.140 0.000, 4.000 0.771, 0.000 10.881, 0.000 " fill = "none" stroke = "black"/>
</g>
<g>
<polygon points = "996.749, 576.289 997.139, 562.823 1000.000, 523.782 1000.000, 583.515 " fill = "none" stroke = "black"/>
</g>
<g>
<polygon points = "" fill = "none" stroke = "black"/>
</g>
<g>
<polygon points = "28.361, 340.918 31.470, 341.647 7.821, 451.057 0.000, 450.686 0.000, 367.667 " fill = "none" stroke = "black"/>
</g>
<g>
<polygon points = "999.394, 981.608 996.436, 981.363 993.479, 978.462 981.716, 957.750 996.127, 943.738 1000.000, 961.834 1000.000, 981.322 " fill = "none" stroke = "black"/>
</g>
<g>
<polygon points = "17.559, 947.955 20.151, 950.756 24.402, 964.206 8.814, 1000.000 4.591, 1000.000 1.843, 961.397 " fill = "none" stroke = "black"/>
</g>
<g>
<polygon points = "993.069, 28.551 898.592, 16.501 921.314, 0.000 1000.000, 0.000 1000.000, 24.063 " fill = "none" stroke = "black"/>
</g>
<g>
<polygon points = "363.354, 4.336 351.394, 0.000 521.133, 0.000 " fill = "none" stroke = "black"/>
</g>
<g>
<polygon points = "" fill = "none" stroke = "black"/>
</g>
<g>
<polygon points = "459.879, 185.007 203.359, 217.098 132.702, 198.993 132.637, 175.976 201.595, 64.882 584.601, 36.158 " fill = "none" stroke = "black"/>
</g>
<g>
<polygon points = "363.354, 4.336 261.529, 19.013 262.335, 0.000 351.394, 0.000 " fill = "none" stroke = "black"/>
</g>
<g>
<polygon points = "22.330, 10.731 7.218, 26.482 0.000, 20.424 0.000, 19.140 10.881, 0.000 14.203, 0.000 " fill = "none" stroke = "black"/>
</g>
<g>
<polygon points = "17.559, 947.955 1.843, 961.397 0.000, 961.203 0.000, 893.410 1.985, 884.382 " fill = "none" stroke = "black"/>
</g>
<g>
<polygon points = "993.069, 28.551 967.289, 110.626 885.702, 99.132 881.282, 97.278 873.066, 23.320 898.592, 16.501 " fill = "none" stroke = "black"/>
</g>
<g>
<polygon points = "996.469, 1000.000 998.055, 997.727 1000.000, 996.746 1000.000, 1000.000 " fill = "none" stroke = "black"/>
</g>
<g>
<polygon points = "79.726, 10.028 87.852, 15.464 92.736, 122.820 40.714, 96.839 14.408, 55.025 13.489, 34.959 65.933, 7.988 " fill = "none" stroke = "black"/>
</g>
<g>
<polygon points = "" fill = "none" stroke = "black"/>
</g>
<g>
<polygon points = "205.951, 3.019 137.857, 10.579 126.671, 0.000 172.818, 0.000 " fill = "none" stroke = "black"/>
</g>
<g>
<polygon points = "996.509, 994.313 998.055, 997.727 996.469, 1000.000 972.275, 1000.000 " fill = "none" stroke = "black"/>
</g>
<g>
<polygon points = "996.127, 943.738 1000.000, 931.667 1000.000, 961.834 " fill = "none" stroke = "black"/>
</g>
<g>
<polygon points = "" fill = "none" stroke = "black"/>
</g>
<g>
<polygon points = "996.749, 576.289 989.682, 619.834 788.764, 268.723 772.224, 188.272 881.282, 97.278 885.702, 99.132 997.139, 562.823 " fill = "none" stroke = "black"/>
</g>
<circle cx = "581.502" cy = "133.836" r = "5" fill = "red" />
<circle cx = "990.776" cy = "857.097" r = "5" fill = "red" />
<circle cx = "264.040" cy = "392.240" r = "5" fill = "red" />
<circle cx = "216.523" cy = "752.607" r = "5" fill = "red" />
<circle cx = "38.816" cy = "967.896" r = "5" fill = "red" />
<circle cx = "534.395" cy = "668.760" r = "5" fill = "red" />
<circle cx = "49.808" cy = "629.177" r = "5" fill = "red" />
<circle cx = "547.838" cy = "303.535" r = "5" fill = "red" />
<circle cx = "892.340" cy = "401.638" r = "5" fill = "red" />
<circle cx = "317.679" cy = "198.367" r = "5" fill = "red" />
<circle cx = "774.937" cy = "546.790" r = "5" fill = "red" />
<circle cx = "535.966" cy = "892.852" r = "5" fill = "red" />
<circle cx = "432.487" cy = "875.560" r = "5" fill = "red" />
<circle cx = "661.080" cy = "234.008" r = "5" fill = "red" />
<circle cx = "768.215" cy = "391.846" r = "5" fill = "red" />
<circle cx = "593.161" cy = "728.468" r = "5" fill = "red" />
<circle cx = "56.454" cy = "116.987" r = "5" fill = "red" />
<circle cx = "561.635" cy = "170.016" r = "5" fill = "red" />
<circle cx = "834.131" cy = "905.313" r = "5" fill = "red" />
<circle cx = "214.282" cy = "855.818" r = "5" fill = "red" />
<circle cx = "106.531" cy = "994.753" r = "5" fill = "red" />
<circle cx = "879.972" cy = "592.340" r = "5" fill = "red" />
<circle cx = "324.026" cy = "228.200" r = "5" fill = "red" />
<circle cx = "129.991" cy = "651.609" r = "5" fill = "red" />
<circle cx = "185.820" cy = "455.146" r = "5" fill = "red" />
<circle cx = "645.933" cy = "974.228" r = "5" fill = "red" />
<circle cx = "457.289" cy = "936.453" r = "5" fill = "red" />
<circle cx = "602.077" cy = "991.722" r = "5" fill = "red" />
<circle cx = "753.887" cy = "852.955" r = "5" fill = "red" />
<circle cx = "572.757" cy = "541.479" r = "5" fill = "red" />
<circle cx = "290.796" cy = "12.193" r = "5" fill = "red" />
<circle cx = "78.351" cy = "981.725" r = "5" fill = "red" />
<circle cx = "75.005" cy = "141.251" r = "5" fill = "red" />
<circle cx = "41.651" cy = "220.395" r = "5" fill = "red" />
<circle cx = "238.341" cy = "988.750" r = "5" fill = "red" />
<circle cx = "571.446" cy = "657.293" r = "5" fill = "red" />
<circle cx = "508.608" cy = "541.641" r = "5" fill = "red" />
<circle cx = "584.249" cy = "518.577" r = "5" fill = "red" />
<circle cx = "560.147" cy = "570.999" r = "5" fill = "red" />
<circle cx = "569.980" cy = "383.714" r = "5" fill = "red" />
<circle cx = "377.668" cy = "157.209" r = "5" fill = "red" />
<circle cx = "265.596" cy = "351.188" r = "5" fill = "red" />
<circle cx = "682.749" cy = "472.831" r = "5" fill = "red" />
<circle cx = "215.683" cy = "433.306" r = "5" fill = "red" />
<circle cx = "319.273" cy = "369.952" r = "5" fill = "red" />
<circle cx = "453.010" cy = "109.094" r = "5" fill = "red" />
<circle cx = "67.312" cy = "563.193" r = "5" fill = "red" />
<circle cx = "568.792" cy = "497.371" r = "5" fill = "red" />
<circle cx = "78.770" cy = "155.187" r = "5" fill = "red" />
<circle cx = "227.936" cy = "299.284" r = "5" fill = "red" />
<circle cx = "898.767" cy = "140.007" r = "5" fill = "red" />
<circle cx = "199.583" cy = "603.793" r = "5" fill = "red" />
<circle cx = "6.845" cy = "52.166" r = "5" fill = "red" />
<circle cx = "827.904" cy = "509.271" r = "5" fill = "red" />
<circle cx = "958.453" cy = "719.867" r = "5" fill = "red" />
<circle cx = "803.943" cy = "979.210" r = "5" fill = "red" />
<circle cx = "925.896" cy = "135.617" r = "5" fill = "red" />
<circle cx = "194.053" cy = "72.740" r = "5" fill = "red" />
<circle cx = "368.356" cy = "956.640" r = "5" fill = "red" />
<circle cx = "998.002" cy = "321.425" r = "5" fill = "red" />
<circle cx = "422.342" cy = "624.134" r = "5" fill = "red" />
<circle cx = "777.211" cy = "799.174" r = "5" fill = "red" />
<circle cx = "425.443" cy = "290.259" r = "5" fill = "red" />
<circle cx = "435.395" cy = "612.957" r = "5" fill = "red" />
<circle cx = "653.745" cy = "764.654" r = "5" fill = "red" />
<circle cx = "833.202" cy = "788.720" r = "5" fill = "red" />
<circle cx = "428.994" cy = "186.511" r = "5" fill = "red" />
<circle cx = "830.327" cy = "975.271" r = "5" fill = "red" />
<circle cx = "738.946" cy = "640.665" r = "5" fill = "red" />
<circle cx = "46.988" cy = "175.519" r = "5" fill = "red" />
<circle cx = "982.948" cy = "997.116" r = "5" fill = "red" />
<circle cx = "364.796" cy = "780.415" r = "5" fill = "red" />
<circle cx = "452.681" cy = "210.960" r = "5" fill = "red" />
<circle cx = "678.057" cy = "799.731" r = "5" fill = "red" />
<circle cx = "422.075" cy = "705.412" r = "5" fill = "red" />
<circle cx = "769.027" cy = "619.956" r = "5" fill = "red" />
<circle cx = "87.097" cy = "703.497" r = "5" fill = "red" />
<circle cx = "524.233" cy = "191.138" r = "5" fill = "red" />
<circle cx = "276.442" cy = "193.261" r = "5" fill = "red" />
<circle cx = "877.231" cy = "487.081" r = "5" fill = "red" />
<circle cx = "600.574" cy = "930.018" r = "5" fill = "red" />
<circle cx = "205.634" cy = "476.154" r = "5" fill = "red" />
<circle cx = "786.307" cy = "689.373" r = "5" fill = "red" />
<circle cx = "289.080" cy = "747.443" r = "5" fill = "red" />
<circle cx = "706.594" cy = "296.680" r = "5" fill = "red" />
<circle cx = "543.836" cy = "157.931" r = "5" fill = "red" />
<circle cx = "973.865" cy = "178.640" r = "5" fill = "red" />
<circle cx = "552.769" cy = "369.293" r = "5" fill = "red" />
<circle cx = "531.683" cy = "191.453" r = "5" fill = "red" />
<circle cx = "303.848" cy = "208.841" r = "5" fill = "red" />
<circle cx = "224.968" cy = "672.488" r = "5" fill = "red" />
<circle cx = "697.297" cy = "369.570" r = "5" fill = "red" />
<circle cx = "857.649" cy = "958.603" r = "5" fill = "red" />
<circle cx = "357.531" cy = "293.348" r = "5" fill = "red" />
<circle cx = "223.421" cy = "899.485" r = "5" fill = "red" />
<circle cx = "447.763" cy = "166.664" r = "5" fill = "red" />
<circle cx = "687.463" cy = "839.818" r = "5" fill = "red" />
<circle cx = "848.967" cy = "675.963" r = "5" fill = "red" />
<circle cx = "5.476" cy = "177.609" r = "5" fill = "red" />
<circle cx = "650.753" cy = "480.521" r = "5" fill = "red" />
</svg>
