<svg xmlns = "http://www.w3.org/2000/svg" width = "1000" height = "1000">
<g>
<polygon points = "31.724, 3.508 32.525, 3.094 45.426, 1.978 49.797, 2.247 52.999, 5.204 51.334, 5.735 34.574, 4.624 31.910, 3.681 " fill = "none" stroke = "black"/>
</g>
<g>
<polygon points = "997.508, 36.004 999.602, 42.043 999.875, 45.589 999.861, 57.739 999.224, 59.492 992.232, 32.368 997.293, 35.665 " fill = "none" stroke = "black"/>
</g>
<g>
<polygon points = "" fill = "none" stroke = "black"/>
</g>
<g>
<polygon points = "998.054, 177.514 998.670, 125.469 1000.000, 128.156 1000.000, 177.506 " fill = "none" stroke = "black"/>
</g>
<g>
<polygon points = "1.125, 0.706 1.024, 1.741 0.806, 1.832 0.000, 0.856 0.000, 0.210 " fill = "none" stroke = "black"/>
</g>
<g>
<polygon points = "" fill = "none" stroke = "black"/>
</g>
<g>
<polygon points = "996.498, 985.690 981.140, 969.882 976.190, 956.346 990.774, 958.308 " fill = "none" stroke = "black"/>
</g>
<g>
<polygon points = "997.856, 4.337 998.517, 3.044 998.725, 3.213 999.119, 4.335 999.119, 5.589 999.104, 5.924 998.462, 5.407 " fill = "none" stroke = "black"/>
</g>
<g>
<polygon points = "" fill = "none" stroke = "black"/>
</g>
<g>
<polygon points = "387.239, 738.704 406.372, 711.865 411.844, 710.467 513.557, 846.691 470.481, 918.535 456.581, 926.514 413.301, 915.213 " fill = "none" stroke = "black"/>
</g>
<g>
<polygon points = "393.517, 706.013 205.692, 696.951 285.103, 492.062 300.344, 505.311 " fill = "none" stroke = "black"/>
</g>
<g>
<polygon points = "2.026, 182.863 0.246, 219.655 0.000, 219.914 0.000, 179.217 " fill = "none" stroke = "black"/>
</g>
<g>
<polygon points = "966.118, 951.415 961.599, 959.527 913.637, 969.429 888.673, 940.534 892.912, 920.686 910.668, 920.090 " fill = "none" stroke = "black"/>
</g>
<g>
<polygon points = "999.022, 944.637 998.743, 944.479 987.319, 905.023 989.248, 897.137 999.100, 895.657 1000.000, 908.991 1000.000, 941.651 " fill = "none" stroke = "black"/>
</g>
<g>
<polygon points = "" fill = "none" stroke = "black"/>
</g>
<g>
<polygon points = "535.093, 1.485 528.386, 0.000 588.287, 0.000 " fill = "none" stroke = "black"/>
</g>
<g>
<polygon points = "0.386, 995.794 0.839, 996.752 0.000, 996.826 0.000, 995.601 " fill = "none" stroke = "black"/>
</g>
<g>
<polygon points = "2.086, 964.318 2.388, 963.264 19.419, 978.503 11.906, 989.505 7.600, 991.831 3.253, 990.876 1.738, 989.881 1.519, 989.577 1.222, 976.943 1.337, 969.803 " fill = "none" stroke = "black"/>
</g>
<g>
<polygon points = "" fill = "none" stroke = "black"/>
</g>
<g>
<polygon points = "0.806, 1.832 0.644, 2.392 0.000, 3.070 0.000, 0.856 " fill = "none" stroke = "black"/>
</g>
<g>
<polygon points = "248.595, 95.560 165.256, 80.428 167.133, 46.982 234.411, 20.985 319.655, 92.095 " fill = "none" stroke = "black"/>
</g>
<g>
<polygon points = "525.567, 27.379 527.059, 26.602 663.319, 39.533 688.803, 57.267 611.840, 115.487 487.978, 90.256 460.356, 80.704 " fill = "none" stroke = "black"/>
</g>
<g>
<polygon points = "952.191, 998.042 971.198, 997.429 974.547, 1000.000 942.667, 1000.000 " fill = "none" stroke = "black"/>
</g>
<g>
<polygon points = "997.727, 998.862 998.275, 999.225 998.689, 1000.000 996.859, 1000.000 " fill = "none" stroke = "black"/>
</g>
<g>
<polygon points = "" fill = "none" stroke = "black"/>
</g>
<g>
<polygon points = "4.417, 170.399 4.453, 171.420 2.026, 182.863 0.000, 179.217 0.000, 160.276 " fill = "none" stroke = "black"/>
</g>
<g>
<polygon points = "849.373, 871.739 889.412, 914.939 892.912, 920.686 888.673, 940.534 857.494, 964.095 790.762, 972.312 783.126, 954.781 " fill = "none" stroke = "black"/>
</g>
<g>
<polygon points = "0.333, 987.332 0.000, 984.926 0.000, 979.927 " fill = "none" stroke = "black"/>
</g>
<g>
<polygon points = "" fill = "none" stroke = "black"/>
</g>
<g>
<polygon points = "502.450, 428.160 279.108, 472.389 243.332, 424.641 240.947, 414.081 352.765, 344.664 472.556, 328.744 479.539, 329.035 496.767, 331.682 " fill = "none" stroke = "black"/>
</g>
<g>
<polygon points = "4.374, 869.813 7.117, 864.678 8.003, 913.453 0.196, 926.883 0.000, 926.683 0.000, 889.001 " fill = "none" stroke = "black"/>
</g>
<g>
<polygon points = "999.647, 9.489 999.542, 10.121 999.085, 8.764 998.462, 5.407 999.104, 5.924 999.514, 7.027 999.667, 7.586 " fill = "none" stroke = "black"/>
</g>
<g>
<polygon points = "4.176, 998.318 4.126, 998.711 3.288, 998.916 3.232, 998.887 2.584, 997.988 2.720, 997.638 " fill = "none" stroke = "black"/>
</g>
<g>
<polygon points = "0.565, 6.673 0.494, 6.826 0.042, 7.595 0.000, 7.435 0.000, 5.256 " fill = "none" stroke = "black"/>
</g>
<g>
<polygon points = "991.189, 998.305 991.232, 998.308 991.237, 998.406 990.740, 1000.000 987.691, 1000.000 " fill = "none" stroke = "black"/>
</g>
<g>
<polygon points = "963.016, 27.787 889.077, 57.372 875.651, 25.790 925.467, 16.993 947.312, 17.831 " fill = "none" stroke = "black"/>
</g>
<g>
<polygon points = "0.552, 989.478 0.839, 989.931 0.780, 991.920 0.652, 991.909 0.000, 990.174 0.000, 990.039 " fill = "none" stroke = "black"/>
</g>
<g>
<polygon points = "64.685, 15.028 40.920, 35.626 31.147, 30.758 34.574, 4.624 51.334, 5.735 " fill = "none" stroke = "black"/>
</g>
<g>
<polygon points = "992.975, 842.564 989.248, 897.137 987.319, 905.023 977.021, 929.381 965.123, 868.535 978.322, 827.994 988.628, 824.097 " fill = "none" stroke = "black"/>
</g>
<g>
<polygon points = "802.907, 1.598 765.308, 0.000 810.190, 0.000 " fill = "none" stroke = "black"/>
</g>
<g>
<polygon points = "" fill = "none" stroke = "black"/>
</g>
<g>
<polygon points = "2.189, 0.539 1.125, 0.706 0.000, 0.210 0.000, 0.000 2.369, 0.000 " fill = "none" stroke = "black"/>
</g>
<g>
<polygon points = "98.565, 637.325 137.954, 549.001 168.701, 537.198 193.153, 705.148 165.356, 739.070 140.090, 752.979 " fill = "none" stroke = "black"/>
</g>
<g>
<polygon points = "998.034, 802.070 1000.000, 782.840 1000.000, 806.043 " fill = "none" stroke = "black"/>
</g>
<g>
<polygon points = "977.892, 3.646 980.978, 3.679 982.122, 4.298 989.198, 27.308 973.228, 24.935 " fill = "none" stroke = "black"/>
</g>
<g>
<polygon points = "" fill = "none" stroke = "black"/>
</g>
<g>
<polygon points = "17.271, 999.732 18.264, 999.667 19.858, 999.860 " fill = "none" stroke = "black"/>
</g>
<g>
<polygon points = "" fill = "none" stroke = "black"/>
</g>
<g>
<polygon points = "0.496, 995.723 0.788, 995.702 1.107, 996.141 0.931, 996.838 0.839, 996.752 0.386, 995.794 " fill = "none" stroke = "black"/>
</g>
<g>
<polygon points = "1.497, 1.718 2.301, 1.301 2.379, 1.707 2.255, 2.756 1.658, 2.925 " fill = "none" stroke = "black"/>
</g>
<g>
<polygon points = "120.073, 436.875 51.851, 405.273 65.244, 357.214 105.526, 330.187 228.689, 402.994 " fill = "none" stroke = "black"/>
</g>
<g>
<polygon points = "0.652, 991.909 0.000, 992.816 0.000, 990.174 " fill = "none" stroke = "black"/>
</g>
<g>
<polygon points = "998.671, 994.715 999.234, 994.172 999.899, 994.277 999.405, 995.682 999.294, 995.822 998.531, 995.097 998.523, 994.993 " fill = "none" stroke = "black"/>
</g>
<g>
<polygon points = "622.913, 984.966 705.335, 955.469 783.126, 954.781 790.762, 972.312 765.915, 997.149 729.873, 1000.000 622.108, 1000.000 611.398, 998.007 613.863, 990.814 " fill = "none" stroke = "black"/>
</g>
<g>
<polygon points = "858.002, 767.805 857.227, 760.971 902.894, 685.977 916.358, 700.811 962.215, 817.686 923.811, 814.478 " fill = "none" stroke = "black"/>
</g>
<g>
<polygon points = "999.193, 949.613 999.022, 944.637 1000.000, 941.651 1000.000, 956.134 " fill = "none" stroke = "black"/>
</g>
<g>
<polygon points = "996.729, 23.915 997.293, 35.665 992.232, 32.368 991.007, 30.395 990.723, 28.898 " fill = "none" stroke = "black"/>
</g>
<g>
<polygon points = "994.413, 1.829 994.145, 0.749 995.620, 1.356 995.519, 1.998 " fill = "none" stroke = "black"/>
</g>
<g>
<polygon points = "0.516, 4.705 0.763, 4.724 1.039, 5.471 0.925, 6.075 0.565, 6.673 0.000, 5.256 0.000, 5.211 " fill = "none" stroke = "black"/>
</g>
<g>
<polygon points = "2.002, 526.599 4.894, 533.833 0.011, 601.198 0.000, 601.186 0.000, 540.342 " fill = "none" stroke = "black"/>
</g>
<g>
<polygon points = "974.520, 0.349 971.798, 0.000 977.069, 0.000 " fill = "none" stroke = "black"/>
</g>
<g>
<polygon points = "997.589, 538.607 998.505, 467.675 1000.000, 462.980 1000.000, 535.863 " fill = "none" stroke = "black"/>
</g>
<g>
<polygon points = "" fill = "none" stroke = "black"/>
</g>
<g>
<polygon points = "998.195, 634.694 999.561, 605.540 1000.000, 604.376 1000.000, 643.810 " fill = "none" stroke = "black"/>
</g>
<g>
<polygon points = "98.939, 902.286 64.669, 824.825 70.645, 814.845 140.090, 752.979 165.356, 739.070 178.439, 754.933 170.182, 877.503 135.869, 899.400 " fill = "none" stroke = "black"/>
</g>
<g>
<polygon points = "976.993, 730.906 991.279, 754.525 997.381, 802.044 988.628, 824.097 978.322, 827.994 962.215, 817.686 916.358, 700.811 " fill = "none" stroke = "black"/>
</g>
<g>
<polygon points = "5.976, 999.414 6.871, 999.746 6.729, 1000.000 5.428, 1000.000 " fill = "none" stroke = "black"/>
</g>
<g>
<polygon points = "374.257, 41.384 363.390, 45.488 262.473, 14.922 308.437, 1.319 357.428, 0.000 390.218, 0.000 " fill = "none" stroke = "black"/>
</g>
<g>
<polygon points = "" fill = "none" stroke = "black"/>
</g>
<g>
<polygon points = "308.437, 1.319 262.473, 14.922 237.975, 16.167 210.939, 4.589 213.037, 2.169 219.169, 0.000 295.688, 0.000 " fill = "none" stroke = "black"/>
</g>
<g>
<polygon points = "" fill = "none" stroke = "black"/>
</g>
<g>
<polygon points = "3.556, 1.341 3.706, 1.258 4.508, 1.711 3.916, 2.214 2.846, 3.017 3.215, 2.019 " fill = "none" stroke = "black"/>
</g>
<g>
<polygon points = "31.147, 30.758 23.940, 31.036 22.836, 30.474 14.397, 6.820 31.910, 3.681 34.574, 4.624 " fill = "none" stroke = "black"/>
</g>
<g>
<polygon points = "" fill = "none" stroke = "black"/>
</g>
<g>
<polygon points = "" fill = "none" stroke = "black"/>
</g>
<g>
<polygon points = "765.915, 997.149 781.403, 1000.000 729.873, 1000.000 " fill = "none" stroke = "black"/>
</g>
<g>
<polygon points = "10.840, 271.513 50.637, 333.811 0.796, 390.195 1.033, 343.156 " fill = "none" stroke = "black"/>
</g>
<g>
<polygon points = "" fill = "none" stroke = "black"/>
</g>
<g>
<polygon points = "" fill = "none" stroke = "black"/>
</g>
<g>
<polygon points = "598.293, 998.165 611.398, 998.007 622.108, 1000.000 578.675, 1000.000 " fill = "none" stroke = "black"/>
</g>
<g>
<polygon points = "461.279, 991.295 518.926, 996.984 484.559, 1000.000 419.821, 1000.000 " fill = "none" stroke = "black"/>
</g>
<g>
<polygon points = "62.312, 0.114 49.797, 2.247 45.426, 1.978 44.587, 0.000 62.264, 0.000 " fill = "none" stroke = "black"/>
</g>
<g>
<polygon points = "716.067, 109.130 728.186, 122.406 775.103, 265.506 727.128, 378.755 721.297, 382.839 679.891, 382.979 634.028, 321.864 " fill = "none" stroke = "black"/>
</g>
<g>
<polygon points = "996.615, 0.916 997.837, 1.156 997.829, 1.321 997.667, 1.759 996.294, 1.429 996.205, 1.359 996.200, 1.314 996.448, 1.002 " fill = "none" stroke = "black"/>
</g>
<g>
<polygon points = "976.367, 615.621 905.506, 680.378 944.896, 441.872 967.059, 451.373 974.829, 509.715 977.714, 613.465 " fill = "none" stroke = "black"/>
</g>
<g>
<polygon points = "999.405, 995.682 999.899, 994.277 1000.000, 994.203 1000.000, 995.207 " fill = "none" stroke = "black"/>
</g>
<g>
<polygon points = "926.991, 2.490 904.414, 4.893 889.616, 3.449 887.541, 0.970 896.071, 0.000 924.675, 0.000 " fill = "none" stroke = "black"/>
</g>
<g>
<polygon points = "266.230, 991.553 135.869, 899.400 170.182, 877.503 292.476, 884.112 302.476, 926.535 270.589, 991.165 " fill = "none" stroke = "black"/>
</g>
<g>
<polygon points = "958.474, 112.383 949.224, 236.904 890.023, 99.447 892.421, 80.900 934.949, 80.788 " fill = "none" stroke = "black"/>
</g>
<g>
<polygon points = "535.747, 997.724 518.926, 996.984 461.279, 991.295 423.461, 981.139 456.581, 926.514 470.481, 918.535 613.863, 990.814 611.398, 998.007 598.293, 998.165 " fill = "none" stroke = "black"/>
</g>
<g>
<polygon points = "992.843, 998.063 992.901, 999.454 991.252, 1000.000 990.740, 1000.000 991.237, 998.406 " fill = "none" stroke = "black"/>
</g>
<g>
<polygon points = "95.046, 999.128 99.888, 1000.000 75.787, 1000.000 " fill = "none" stroke = "black"/>
</g>
<g>
<polygon points = "999.003, 997.322 999.076, 997.309 999.049, 999.866 999.035, 1000.000 998.689, 1000.000 998.275, 999.225 " fill = "none" stroke = "black"/>
</g>
<g>
<polygon points = "936.828, 983.998 965.238, 974.629 969.964, 980.558 952.191, 998.042 942.667, 1000.000 936.472, 1000.000 " fill = "none" stroke = "black"/>
</g>
<g>
<polygon points = "35.020, 982.524 54.947, 992.251 46.691, 995.072 11.906, 989.505 19.419, 978.503 " fill = "none" stroke = "black"/>
</g>
<g>
<polygon points = "540.262, 599.577 550.198, 556.777 746.606, 567.355 748.277, 569.597 710.433, 703.951 670.202, 698.780 569.249, 662.609 541.380, 635.412 " fill = "none" stroke = "black"/>
</g>
<g>
<polygon points = "90.237, 11.850 64.685, 15.028 51.334, 5.735 52.999, 5.204 75.155, 1.525 94.685, 0.110 " fill = "none" stroke = "black"/>
</g>
<g>
<polygon points = "487.978, 90.256 611.840, 115.487 544.096, 286.643 496.767, 331.682 479.539, 329.035 " fill = "none" stroke = "black"/>
</g>
<g>
<polygon points = "752.183, 6.431 800.783, 2.532 776.137, 26.675 742.368, 34.046 734.649, 18.456 " fill = "none" stroke = "black"/>
</g>
<g>
<polygon points = "999.006, 991.196 999.124, 991.630 998.620, 993.629 997.243, 994.953 996.141, 993.548 998.268, 990.590 " fill = "none" stroke = "black"/>
</g>
<g>
<polygon points = "969.964, 980.558 978.350, 985.910 986.034, 994.688 971.198, 997.429 952.191, 998.042 " fill = "none" stroke = "black"/>
</g>
<g>
<polygon points = "0.011, 601.198 4.894, 533.833 5.982, 531.376 20.481, 568.328 18.009, 612.370 13.286, 625.434 3.711, 630.703 " fill = "none" stroke = "black"/>
</g>
<g>
<polygon points = "0.796, 390.195 50.637, 333.811 55.416, 336.367 65.244, 357.214 51.851, 405.273 44.955, 414.556 2.986, 423.315 0.000, 416.213 0.000, 407.647 " fill = "none" stroke = "black"/>
</g>
<g>
<polygon points = "915.417, 325.924 943.173, 437.427 829.413, 481.614 760.070, 387.264 " fill = "none" stroke = "black"/>
</g>
<g>
<polygon points = "" fill = "none" stroke = "black"/>
</g>
<g>
<polygon points = "0.925, 6.075 1.525, 5.272 2.019, 4.698 2.151, 4.588 4.426, 6.217 4.529, 6.468 2.525, 17.724 0.000, 16.797 0.000, 8.204 0.494, 6.826 0.565, 6.673 " fill = "none" stroke = "black"/>
</g>
<g>
<polygon points = "" fill = "none" stroke = "black"/>
</g>
<g>
<polygon points = "7.303, 56.951 23.940, 31.036 31.147, 30.758 40.920, 35.626 45.227, 64.898 40.002, 73.950 " fill = "none" stroke = "black"/>
</g>
<g>
<polygon points = "999.514, 7.027 999.104, 5.924 999.119, 5.589 1000.000, 4.361 1000.000, 4.423 " fill = "none" stroke = "black"/>
</g>
<g>
<polygon points = "13.815, 633.024 42.331, 831.046 38.115, 834.055 31.032, 833.248 10.186, 808.520 9.671, 804.800 " fill = "none" stroke = "black"/>
</g>
<g>
<polygon points = "1.154, 999.004 1.632, 1000.000 0.000, 1000.000 0.000, 999.569 " fill = "none" stroke = "black"/>
</g>
<g>
<polygon points = "" fill = "none" stroke = "black"/>
</g>
<g>
<polygon points = "" fill = "none" stroke = "black"/>
</g>
<g>
<polygon points = "999.035, 1000.000 999.049, 999.866 1000.000, 996.983 1000.000, 1000.000 " fill = "none" stroke = "black"/>
</g>
<g>
<polygon points = "999.861, 57.739 999.875, 45.589 1000.000, 44.608 1000.000, 58.368 " fill = "none" stroke = "black"/>
</g>
<g>
<polygon points = "999.697, 2.301 999.437, 2.515 999.153, 2.519 998.796, 2.244 999.001, 1.392 999.460, 1.164 " fill = "none" stroke = "black"/>
</g>
<g>
<polygon points = "" fill = "none" stroke = "black"/>
</g>
<g>
<polygon points = "1.475, 66.012 24.115, 116.009 23.939, 117.853 8.957, 132.988 " fill = "none" stroke = "black"/>
</g>
<g>
<polygon points = "992.509, 7.244 994.662, 3.576 994.670, 3.578 997.188, 10.018 997.546, 14.643 995.556, 15.130 " fill = "none" stroke = "black"/>
</g>
<g>
<polygon points = "19.858, 999.860 18.264, 999.667 7.600, 991.831 11.906, 989.505 46.691, 995.072 37.669, 1000.000 21.283, 1000.000 " fill = "none" stroke = "black"/>
</g>
<g>
<polygon points = "999.100, 895.657 989.248, 897.137 992.975, 842.564 998.821, 847.313 999.965, 867.967 " fill = "none" stroke = "black"/>
</g>
<g>
<polygon points = "998.656, 997.219 998.343, 997.473 997.193, 997.964 997.359, 997.336 997.533, 997.193 998.788, 996.789 " fill = "none" stroke = "black"/>
</g>
<g>
<polygon points = "2.387, 1.148 2.301, 1.301 1.497, 1.718 1.024, 1.741 1.125, 0.706 2.189, 0.539 " fill = "none" stroke = "black"/>
</g>
<g>
<polygon points = "" fill = "none" stroke = "black"/>
</g>
<g>
<polygon points = "996.060, 999.686 995.829, 999.265 995.875, 999.045 996.346, 998.691 996.631, 998.536 997.402, 998.663 " fill = "none" stroke = "black"/>
</g>
<g>
<polygon points = "999.598, 0.467 999.460, 1.164 999.001, 1.392 997.829, 1.321 997.837, 1.156 998.134, 0.776 " fill = "none" stroke = "black"/>
</g>
<g>
<polygon points = "999.277, 2.941 998.725, 3.213 998.517, 3.044 998.509, 3.032 999.153, 2.519 999.437, 2.515 " fill = "none" stroke = "black"/>
</g>
<g>
<polygon points = "" fill = "none" stroke = "black"/>
</g>
<g>
<polygon points = "989.279, 997.040 991.189, 998.305 987.691, 1000.000 986.625, 1000.000 " fill = "none" stroke = "black"/>
</g>
<g>
<polygon points = "999.895, 16.250 999.733, 14.111 999.875, 13.472 1000.000, 13.319 1000.000, 16.534 " fill = "none" stroke = "black"/>
</g>
<g>
<polygon points = "887.541, 0.970 889.616, 3.449 863.996, 13.767 846.992, 4.114 854.364, 0.000 878.496, 0.000 " fill = "none" stroke = "black"/>
</g>
<g>
<polygon points = "990.363, 66.829 989.912, 68.617 961.166, 60.795 964.382, 28.106 973.228, 24.935 989.198, 27.308 989.791, 27.481 990.723, 28.898 991.007, 30.395 " fill = "none" stroke = "black"/>
</g>
<g>
<polygon points = "903.088, 684.443 865.707, 643.753 829.413, 481.614 943.173, 437.427 944.896, 441.872 905.506, 680.378 " fill = "none" stroke = "black"/>
</g>
<g>
<polygon points = "997.508, 36.004 997.293, 35.665 996.729, 23.915 998.613, 21.414 1000.000, 25.103 1000.000, 26.542 " fill = "none" stroke = "black"/>
</g>
<g>
<polygon points = "96.689, 266.927 229.386, 280.170 228.948, 403.060 228.689, 402.994 105.526, 330.187 " fill = "none" stroke = "black"/>
</g>
<g>
<polygon points = "999.667, 7.586 999.514, 7.027 1000.000, 4.423 1000.000, 7.518 " fill = "none" stroke = "black"/>
</g>
<g>
<polygon points = "535.747, 997.724 598.293, 998.165 578.675, 1000.000 539.964, 1000.000 " fill = "none" stroke = "black"/>
</g>
<g>
<polygon points = "999.561, 605.540 998.195, 634.694 995.133, 620.769 996.173, 610.360 " fill = "none" stroke = "black"/>
</g>
<g>
<polygon points = "999.736, 996.748 999.243, 996.261 999.294, 995.822 999.405, 995.682 1000.000, 995.207 1000.000, 996.769 " fill = "none" stroke = "black"/>
</g>
<g>
<polygon points = "999.647, 9.489 999.667, 7.586 1000.000, 7.518 1000.000, 11.699 " fill = "none" stroke = "black"/>
</g>
<g>
<polygon points = "" fill = "none" stroke = "black"/>
</g>
<g>
<polygon points = "213.037, 2.169 131.784, 0.014 131.706, 0.000 219.169, 0.000 " fill = "none" stroke = "black"/>
</g>
<g>
<polygon points = "707.089, 2.274 662.009, 0.645 659.283, 0.000 713.378, 0.000 " fill = "none" stroke = "black"/>
</g>
<g>
<polygon points = "3.288, 998.916 4.126, 998.711 5.250, 999.313 4.935, 1000.000 4.463, 1000.000 " fill = "none" stroke = "black"/>
</g>
<g>
<polygon points = "" fill = "none" stroke = "black"/>
</g>
<g>
<polygon points = "41.569, 941.201 40.397, 939.570 24.972, 907.605 29.012, 899.288 96.784, 923.499 101.145, 951.638 76.144, 974.710 " fill = "none" stroke = "black"/>
</g>
<g>
<polygon points = "42.331, 831.046 13.815, 633.024 13.286, 625.434 18.009, 612.370 43.671, 651.335 70.645, 814.845 64.669, 824.825 " fill = "none" stroke = "black"/>
</g>
<g>
<polygon points = "998.821, 847.313 992.975, 842.564 988.628, 824.097 997.381, 802.044 998.034, 802.070 1000.000, 806.043 1000.000, 841.144 " fill = "none" stroke = "black"/>
</g>
<g>
<polygon points = "0.972, 3.799 1.113, 3.420 1.658, 2.925 2.255, 2.756 2.728, 3.144 2.448, 3.528 1.757, 3.820 " fill = "none" stroke = "black"/>
</g>
<g>
<polygon points = "923.811, 814.478 962.215, 817.686 978.322, 827.994 965.123, 868.535 910.668, 920.090 892.912, 920.686 889.412, 914.939 " fill = "none" stroke = "black"/>
</g>
<g>
<polygon points = "994.443, 0.373 992.561, 0.000 994.657, 0.000 " fill = "none" stroke = "black"/>
</g>
<g>
<polygon points = "978.192, 131.041 994.942, 188.778 967.868, 284.031 957.422, 279.938 949.224, 236.904 958.474, 112.383 " fill = "none" stroke = "black"/>
</g>
<g>
<polygon points = "9.671, 804.800 10.186, 808.520 0.623, 824.244 0.000, 823.930 0.000, 757.177 " fill = "none" stroke = "black"/>
</g>
<g>
<polygon points = "0.827, 992.028 0.780, 991.920 0.839, 989.931 1.519, 989.577 1.738, 989.881 " fill = "none" stroke = "black"/>
</g>
<g>
<polygon points = "" fill = "none" stroke = "black"/>
</g>
<g>
<polygon points = "996.294, 1.429 997.667, 1.759 997.733, 2.030 997.685, 2.387 997.520, 2.415 996.826, 2.219 " fill = "none" stroke = "black"/>
</g>
<g>
<polygon points = "765.915, 997.149 790.762, 972.312 857.494, 964.095 864.109, 990.963 785.802, 1000.000 781.403, 1000.000 " fill = "none" stroke = "black"/>
</g>
<g>
<polygon points = "999.243, 996.261 998.788, 996.789 997.533, 997.193 997.776, 995.961 998.531, 995.097 999.294, 995.822 " fill = "none" stroke = "black"/>
</g>
<g>
<polygon points = "" fill = "none" stroke = "black"/>
</g>
<g>
<polygon points = "662.009, 0.645 664.606, 17.790 664.436, 17.884 634.757, 11.567 614.250, 0.000 659.283, 0.000 " fill = "none" stroke = "black"/>
</g>
<g>
<polygon points = "3.215, 2.019 2.846, 3.017 2.728, 3.144 2.255, 2.756 2.379, 1.707 " fill = "none" stroke = "black"/>
</g>
<g>
<polygon points = "" fill = "none" stroke = "black"/>
</g>
<g>
<polygon points = "" fill = "none" stroke = "black"/>
</g>
<g>
<polygon points = "94.685, 0.110 75.155, 1.525 62.312, 0.114 62.264, 0.000 95.088, 0.000 " fill = "none" stroke = "black"/>
</g>
<g>
<polygon points = "997.188, 10.018 994.670, 3.578 996.336, 3.225 997.477, 3.921 997.856, 4.337 998.462, 5.407 999.085, 8.764 " fill = "none" stroke = "black"/>
</g>
<g>
<polygon points = "999.697, 2.301 999.460, 1.164 999.598, 0.467 1000.000, 0.072 1000.000, 2.286 " fill = "none" stroke = "black"/>
</g>
<g>
<polygon points = "" fill = "none" stroke = "black"/>
</g>
<g>
<polygon points = "" fill = "none" stroke = "black"/>
</g>
<g>
<polygon points = "703.325, 787.959 540.599, 818.293 569.249, 662.609 670.202, 698.780 " fill = "none" stroke = "black"/>
</g>
<g>
<polygon points = "997.112, 578.820 996.173, 610.360 995.133, 620.769 977.714, 613.465 974.829, 509.715 991.259, 512.368 996.318, 552.899 " fill = "none" stroke = "black"/>
</g>
<g>
<polygon points = "" fill = "none" stroke = "black"/>
</g>
<g>
<polygon points = "1.270, 998.887 2.221, 998.442 2.985, 998.862 2.634, 999.463 " fill = "none" stroke = "black"/>
</g>
<g>
<polygon points = "985.058, 1.766 980.978, 3.679 977.892, 3.646 976.827, 3.078 974.520, 0.349 977.069, 0.000 979.826, 0.000 " fill = "none" stroke = "black"/>
</g>
<g>
<polygon points = "995.829, 999.265 996.060, 999.686 996.110, 1000.000 995.404, 1000.000 " fill = "none" stroke = "black"/>
</g>
<g>
<polygon points = "43.671, 651.335 18.009, 612.370 20.481, 568.328 26.892, 555.314 102.290, 527.262 137.954, 549.001 98.565, 637.325 " fill = "none" stroke = "black"/>
</g>
<g>
<polygon points = "237.975, 16.167 262.473, 14.922 363.390, 45.488 373.775, 96.644 362.127, 102.079 319.655, 92.095 234.411, 20.985 " fill = "none" stroke = "black"/>
</g>
<g>
<polygon points = "" fill = "none" stroke = "black"/>
</g>
<g>
<polygon points = "" fill = "none" stroke = "black"/>
</g>
<g>
<polygon points = "8.003, 913.453 7.117, 864.678 7.144, 864.537 31.032, 833.248 38.115, 834.055 29.012, 899.288 24.972, 907.605 " fill = "none" stroke = "black"/>
</g>
<g>
<polygon points = "" fill = "none" stroke = "black"/>
</g>
<g>
<polygon points = "2.986, 423.315 44.955, 414.556 26.892, 555.314 20.481, 568.328 5.982, 531.376 " fill = "none" stroke = "black"/>
</g>
<g>
<polygon points = "987.923, 1.183 988.212, 1.182 991.142, 1.415 993.205, 2.201 994.662, 3.576 992.509, 7.244 982.122, 4.298 980.978, 3.679 985.058, 1.766 " fill = "none" stroke = "black"/>
</g>
<g>
<polygon points = "993.779, 999.423 994.338, 999.140 995.393, 998.768 995.659, 998.855 995.875, 999.045 995.829, 999.265 995.404, 1000.000 993.810, 1000.000 " fill = "none" stroke = "black"/>
</g>
<g>
<polygon points = "32.525, 3.094 31.724, 3.508 17.189, 0.057 17.148, 0.000 33.178, 0.000 " fill = "none" stroke = "black"/>
</g>
<g>
<polygon points = "760.070, 387.264 829.413, 481.614 865.707, 643.753 748.277, 569.597 746.606, 567.355 721.297, 382.839 727.128, 378.755 " fill = "none" stroke = "black"/>
</g>
<g>
<polygon points = "2.002, 526.599 0.000, 540.342 0.000, 498.773 " fill = "none" stroke = "black"/>
</g>
<g>
<polygon points = "705.634, 7.253 664.606, 17.790 662.009, 0.645 707.089, 2.274 " fill = "none" stroke = "black"/>
</g>
<g>
<polygon points = "992.901, 999.454 993.779, 999.423 993.810, 1000.000 991.252, 1000.000 " fill = "none" stroke = "black"/>
</g>
<g>
<polygon points = "" fill = "none" stroke = "black"/>
</g>
<g>
<polygon points = "1.033, 343.156 0.796, 390.195 0.000, 407.647 0.000, 330.735 " fill = "none" stroke = "black"/>
</g>
<g>
<polygon points = "4.453, 171.420 11.948, 207.085 9.635, 228.609 1.829, 239.132 0.246, 219.655 2.026, 182.863 " fill = "none" stroke = "black"/>
</g>
<g>
<polygon points = "102.290, 527.262 120.073, 436.875 228.689, 402.994 228.948, 403.060 240.947, 414.081 243.332, 424.641 168.701, 537.198 137.954, 549.001 " fill = "none" stroke = "black"/>
</g>
<g>
<polygon points = "" fill = "none" stroke = "black"/>
</g>
<g>
<polygon points = "880.236, 142.297 891.292, 238.995 775.103, 265.506 728.186, 122.406 " fill = "none" stroke = "black"/>
</g>
<g>
<polygon points = "998.796, 2.244 999.153, 2.519 998.509, 3.032 997.685, 2.387 997.733, 2.030 " fill = "none" stroke = "black"/>
</g>
<g>
<polygon points = "" fill = "none" stroke = "black"/>
</g>
<g>
<polygon points = "991.196, 0.298 988.212, 1.182 987.923, 1.183 983.961, 0.128 991.223, 0.000 991.426, 0.000 " fill = "none" stroke = "black"/>
</g>
<g>
<polygon points = "75.155, 1.525 52.999, 5.204 49.797, 2.247 62.312, 0.114 " fill = "none" stroke = "black"/>
</g>
<g>
<polygon points = "995.714, 998.273 996.879, 997.450 997.359, 997.336 997.193, 997.964 996.631, 998.536 996.346, 998.691 995.659, 998.855 995.393, 998.768 " fill = "none" stroke = "black"/>
</g>
<g>
<polygon points = "994.443, 0.373 994.452, 0.422 994.017, 0.658 992.309, 0.120 992.015, 0.000 992.561, 0.000 " fill = "none" stroke = "black"/>
</g>
<g>
<polygon points = "999.440, 13.988 999.657, 12.224 999.808, 12.920 999.875, 13.472 999.733, 14.111 " fill = "none" stroke = "black"/>
</g>
<g>
<polygon points = "997.594, 998.661 997.402, 998.663 996.631, 998.536 997.193, 997.964 998.343, 997.473 " fill = "none" stroke = "black"/>
</g>
<g>
<polygon points = "998.670, 125.469 997.771, 111.700 1000.000, 101.601 1000.000, 128.156 " fill = "none" stroke = "black"/>
</g>
<g>
<polygon points = "46.691, 995.072 54.947, 992.251 66.972, 992.532 63.651, 997.880 54.405, 1000.000 37.669, 1000.000 " fill = "none" stroke = "black"/>
</g>
<g>
<polygon points = "842.538, 845.125 858.002, 767.805 923.811, 814.478 889.412, 914.939 849.373, 871.739 " fill = "none" stroke = "black"/>
</g>
<g>
<polygon points = "710.433, 703.951 748.277, 569.597 865.707, 643.753 903.088, 684.443 902.894, 685.977 857.227, 760.971 " fill = "none" stroke = "black"/>
</g>
<g>
<polygon points = "" fill = "none" stroke = "black"/>
</g>
<g>
<polygon points = "14.397, 6.820 22.836, 30.474 2.345, 25.081 2.525, 17.724 4.529, 6.468 " fill = "none" stroke = "black"/>
</g>
<g>
<polygon points = "995.149, 997.061 996.401, 996.159 997.179, 996.291 996.879, 997.450 995.714, 998.273 " fill = "none" stroke = "black"/>
</g>
<g>
<polygon points = "998.653, 988.825 998.268, 990.590 996.141, 993.548 994.695, 994.441 989.302, 996.130 986.034, 994.688 978.350, 985.910 981.140, 969.882 996.498, 985.690 " fill = "none" stroke = "black"/>
</g>
<g>
<polygon points = "43.671, 651.335 98.565, 637.325 140.090, 752.979 70.645, 814.845 " fill = "none" stroke = "black"/>
</g>
<g>
<polygon points = "41.381, 143.147 23.939, 117.853 24.115, 116.009 40.002, 73.950 45.227, 64.898 55.154, 63.673 141.777, 97.573 135.733, 110.031 " fill = "none" stroke = "black"/>
</g>
<g>
<polygon points = "976.993, 730.906 916.358, 700.811 902.894, 685.977 903.088, 684.443 905.506, 680.378 976.367, 615.621 " fill = "none" stroke = "black"/>
</g>
<g>
<polygon points = "998.034, 802.070 997.381, 802.044 991.279, 754.525 1000.000, 697.093 1000.000, 782.840 " fill = "none" stroke = "black"/>
</g>
<g>
<polygon points = "999.602, 42.043 997.508, 36.004 1000.000, 26.542 1000.000, 35.184 " fill = "none" stroke = "black"/>
</g>
<g>
<polygon points = "5.989, 999.257 5.250, 999.313 4.126, 998.711 4.176, 998.318 5.153, 998.081 5.155, 998.082 " fill = "none" stroke = "black"/>
</g>
<g>
<polygon points = "" fill = "none" stroke = "black"/>
</g>
<g>
<polygon points = "" fill = "none" stroke = "black"/>
</g>
<g>
<polygon points = "" fill = "none" stroke = "black"/>
</g>
<g>
<polygon points = "193.153, 705.148 168.701, 537.198 243.332, 424.641 279.108, 472.389 285.103, 492.062 205.692, 696.951 " fill = "none" stroke = "black"/>
</g>
<g>
<polygon points = "292.476, 884.112 170.182, 877.503 178.439, 754.933 316.183, 807.453 " fill = "none" stroke = "black"/>
</g>
<g>
<polygon points = "7.391, 135.457 8.957, 132.988 23.939, 117.853 41.381, 143.147 52.686, 194.774 44.013, 205.895 11.948, 207.085 4.453, 171.420 4.417, 170.399 " fill = "none" stroke = "black"/>
</g>
<g>
<polygon points = "1.531, 4.235 2.019, 4.698 1.525, 5.272 1.039, 5.471 0.763, 4.724 " fill = "none" stroke = "black"/>
</g>
<g>
<polygon points = "535.093, 1.485 539.353, 12.465 525.953, 24.601 440.852, 0.000 528.386, 0.000 " fill = "none" stroke = "black"/>
</g>
<g>
<polygon points = "" fill = "none" stroke = "black"/>
</g>
<g>
<polygon points = "988.474, 412.314 974.238, 421.680 973.870, 298.226 992.883, 303.877 1000.000, 323.509 1000.000, 345.800 " fill = "none" stroke = "black"/>
</g>
<g>
<polygon points = "1.082, 997.212 0.931, 996.838 1.107, 996.141 1.455, 996.054 2.253, 996.634 2.720, 997.638 2.584, 997.988 1.502, 997.712 1.308, 997.596 " fill = "none" stroke = "black"/>
</g>
<g>
<polygon points = "" fill = "none" stroke = "black"/>
</g>
<g>
<polygon points = "887.541, 0.970 878.496, 0.000 896.071, 0.000 " fill = "none" stroke = "black"/>
</g>
<g>
<polygon points = "9.635, 228.609 11.948, 207.085 44.013, 205.895 55.416, 336.367 50.637, 333.811 10.840, 271.513 " fill = "none" stroke = "black"/>
</g>
<g>
<polygon points = "" fill = "none" stroke = "black"/>
</g>
<g>
<polygon points = "" fill = "none" stroke = "black"/>
</g>
<g>
<polygon points = "999.193, 949.613 990.774, 958.308 976.190, 956.346 971.217, 948.487 974.580, 942.492 998.743, 944.479 999.022, 944.637 " fill = "none" stroke = "black"/>
</g>
<g>
<polygon points = "964.382, 28.106 961.166, 60.795 934.949, 80.788 892.421, 80.900 885.815, 73.498 889.077, 57.372 963.016, 27.787 " fill = "none" stroke = "black"/>
</g>
<g>
<polygon points = "0.279, 33.595 0.000, 44.651 0.000, 33.458 " fill = "none" stroke = "black"/>
</g>
<g>
<polygon points = "" fill = "none" stroke = "black"/>
</g>
<g>
<polygon points = "996.448, 1.002 996.200, 1.314 994.452, 0.422 994.443, 0.373 994.657, 0.000 994.811, 0.000 " fill = "none" stroke = "black"/>
</g>
<g>
<polygon points = "999.899, 994.277 999.234, 994.172 999.871, 992.296 1000.000, 992.257 1000.000, 994.203 " fill = "none" stroke = "black"/>
</g>
<g>
<polygon points = "910.355, 980.917 913.637, 969.429 961.599, 959.527 965.238, 974.629 936.828, 983.998 " fill = "none" stroke = "black"/>
</g>
<g>
<polygon points = "" fill = "none" stroke = "black"/>
</g>
<g>
<polygon points = "0.042, 7.595 0.494, 6.826 0.000, 8.204 0.000, 7.728 " fill = "none" stroke = "black"/>
</g>
<g>
<polygon points = "541.380, 635.412 569.249, 662.609 540.599, 818.293 533.126, 832.881 513.557, 846.691 411.844, 710.467 " fill = "none" stroke = "black"/>
</g>
<g>
<polygon points = "95.046, 999.128 72.457, 991.160 76.144, 974.710 101.145, 951.638 170.057, 994.601 130.761, 1000.000 99.888, 1000.000 " fill = "none" stroke = "black"/>
</g>
<g>
<polygon points = "" fill = "none" stroke = "black"/>
</g>
<g>
<polygon points = "0.496, 995.723 0.386, 995.794 0.000, 995.601 0.000, 993.565 " fill = "none" stroke = "black"/>
</g>
<g>
<polygon points = "999.965, 867.967 998.821, 847.313 1000.000, 841.144 1000.000, 867.941 " fill = "none" stroke = "black"/>
</g>
<g>
<polygon points = "691.704, 57.374 736.201, 41.223 885.815, 73.498 892.421, 80.900 890.023, 99.447 880.236, 142.297 728.186, 122.406 716.067, 109.130 " fill = "none" stroke = "black"/>
</g>
<g>
<polygon points = "6.871, 999.746 9.009, 999.860 9.632, 1000.000 6.729, 1000.000 " fill = "none" stroke = "black"/>
</g>
<g>
<polygon points = "124.321, 26.417 167.133, 46.982 165.256, 80.428 141.777, 97.573 55.154, 63.673 " fill = "none" stroke = "black"/>
</g>
<g>
<polygon points = "351.824, 123.505 362.127, 102.079 373.775, 96.644 460.356, 80.704 487.978, 90.256 479.539, 329.035 472.556, 328.744 " fill = "none" stroke = "black"/>
</g>
<g>
<polygon points = "" fill = "none" stroke = "black"/>
</g>
<g>
<polygon points = "" fill = "none" stroke = "black"/>
</g>
<g>
<polygon points = "846.992, 4.114 863.996, 13.767 863.885, 19.370 776.137, 26.675 800.783, 2.532 802.975, 2.049 " fill = "none" stroke = "black"/>
</g>
<g>
<polygon points = "1.337, 969.803 1.222, 976.943 0.000, 979.055 0.000, 970.973 " fill = "none" stroke = "black"/>
</g>
<g>
<polygon points = "2.172, 25.466 0.279, 33.595 0.000, 33.458 0.000, 18.097 " fill = "none" stroke = "black"/>
</g>
<g>
<polygon points = "778.174, 843.063 725.031, 881.563 571.365, 858.369 533.126, 832.881 540.599, 818.293 703.325, 787.959 " fill = "none" stroke = "black"/>
</g>
<g>
<polygon points = "4.470, 0.655 4.381, 0.664 3.984, 0.000 4.960, 0.000 " fill = "none" stroke = "black"/>
</g>
<g>
<polygon points = "" fill = "none" stroke = "black"/>
</g>
<g>
<polygon points = "" fill = "none" stroke = "black"/>
</g>
<g>
<polygon points = "" fill = "none" stroke = "black"/>
</g>
<g>
<polygon points = "2.221, 998.442 1.270, 998.887 1.224, 998.884 1.308, 997.596 1.502, 997.712 " fill = "none" stroke = "black"/>
</g>
<g>
<polygon points = "868.745, 992.023 876.890, 992.874 878.380, 1000.000 850.124, 1000.000 " fill = "none" stroke = "black"/>
</g>
<g>
<polygon points = "" fill = "none" stroke = "black"/>
</g>
<g>
<polygon points = "992.309, 0.120 991.265, 0.698 991.196, 0.298 991.426, 0.000 992.015, 0.000 " fill = "none" stroke = "black"/>
</g>
<g>
<polygon points = "55.416, 336.367 44.013, 205.895 52.686, 194.774 81.677, 221.706 96.689, 266.927 105.526, 330.187 65.244, 357.214 " fill = "none" stroke = "black"/>
</g>
<g>
<polygon points = "978.350, 985.910 969.964, 980.558 965.238, 974.629 961.599, 959.527 966.118, 951.415 971.217, 948.487 976.190, 956.346 981.140, 969.882 " fill = "none" stroke = "black"/>
</g>
<g>
<polygon points = "41.569, 941.201 76.144, 974.710 72.457, 991.160 66.972, 992.532 54.947, 992.251 35.020, 982.524 " fill = "none" stroke = "black"/>
</g>
<g>
<polygon points = "550.183, 528.133 550.198, 556.777 540.262, 599.577 300.344, 505.311 285.103, 492.062 279.108, 472.389 502.450, 428.160 " fill = "none" stroke = "black"/>
</g>
<g>
<polygon points = "899.917, 993.942 910.355, 980.917 936.828, 983.998 936.472, 1000.000 908.767, 1000.000 " fill = "none" stroke = "black"/>
</g>
<g>
<polygon points = "300.304, 194.389 351.824, 123.505 472.556, 328.744 352.765, 344.664 " fill = "none" stroke = "black"/>
</g>
<g>
<polygon points = "2.986, 423.315 5.982, 531.376 4.894, 533.833 2.002, 526.599 0.000, 498.773 0.000, 416.213 " fill = "none" stroke = "black"/>
</g>
<g>
<polygon points = "" fill = "none" stroke = "black"/>
</g>
<g>
<polygon points = "999.243, 996.261 999.736, 996.748 999.076, 997.309 999.003, 997.322 998.656, 997.219 998.788, 996.789 " fill = "none" stroke = "black"/>
</g>
<g>
<polygon points = "6.443, 0.725 5.837, 0.876 5.542, 0.660 6.006, 0.000 7.949, 0.000 " fill = "none" stroke = "black"/>
</g>
<g>
<polygon points = "311.618, 997.511 270.589, 991.165 302.476, 926.535 413.301, 915.213 456.581, 926.514 423.461, 981.139 " fill = "none" stroke = "black"/>
</g>
<g>
<polygon points = "999.722, 4.077 999.277, 2.941 999.437, 2.515 999.697, 2.301 1000.000, 2.286 1000.000, 4.286 " fill = "none" stroke = "black"/>
</g>
<g>
<polygon points = "1.829, 239.132 9.635, 228.609 10.840, 271.513 1.033, 343.156 0.000, 330.735 0.000, 265.190 " fill = "none" stroke = "black"/>
</g>
<g>
<polygon points = "" fill = "none" stroke = "black"/>
</g>
<g>
<polygon points = "316.183, 807.453 178.439, 754.933 165.356, 739.070 193.153, 705.148 205.692, 696.951 393.517, 706.013 406.372, 711.865 387.239, 738.704 " fill = "none" stroke = "black"/>
</g>
<g>
<polygon points = "3.173, 0.853 3.556, 1.341 3.215, 2.019 2.379, 1.707 2.301, 1.301 2.387, 1.148 " fill = "none" stroke = "black"/>
</g>
<g>
<polygon points = "0.080, 61.622 1.475, 66.012 8.957, 132.988 7.391, 135.457 4.212, 132.535 0.000, 121.637 0.000, 61.542 " fill = "none" stroke = "black"/>
</g>
<g>
<polygon points = "" fill = "none" stroke = "black"/>
</g>
<g>
<polygon points = "999.001, 1.392 998.796, 2.244 997.733, 2.030 997.667, 1.759 997.829, 1.321 " fill = "none" stroke = "black"/>
</g>
<g>
<polygon points = "" fill = "none" stroke = "black"/>
</g>
<g>
<polygon points = "0.839, 996.752 0.931, 996.838 1.082, 997.212 0.190, 998.007 0.000, 998.129 0.000, 996.826 " fill = "none" stroke = "black"/>
</g>
<g>
<polygon points = "" fill = "none" stroke = "black"/>
</g>
<g>
<polygon points = "997.179, 996.291 996.401, 996.159 997.260, 995.023 998.523, 994.993 998.531, 995.097 997.776, 995.961 " fill = "none" stroke = "black"/>
</g>
<g>
<polygon points = "" fill = "none" stroke = "black"/>
</g>
<g>
<polygon points = "2.178, 952.854 0.196, 926.883 8.003, 913.453 24.972, 907.605 40.397, 939.570 " fill = "none" stroke = "black"/>
</g>
<g>
<polygon points = "992.850, 998.029 992.843, 998.063 991.237, 998.406 991.232, 998.308 " fill = "none" stroke = "black"/>
</g>
<g>
<polygon points = "2.634, 999.463 2.985, 998.862 3.232, 998.887 3.288, 998.916 4.463, 1000.000 2.811, 1000.000 " fill = "none" stroke = "black"/>
</g>
<g>
<polygon points = "" fill = "none" stroke = "black"/>
</g>
<g>
<polygon points = "154.580, 178.203 135.733, 110.031 141.777, 97.573 165.256, 80.428 248.595, 95.560 223.765, 211.096 " fill = "none" stroke = "black"/>
</g>
<g>
<polygon points = "998.505, 467.675 993.378, 450.700 993.377, 450.677 1000.000, 389.200 1000.000, 462.980 " fill = "none" stroke = "black"/>
</g>
<g>
<polygon points = "0.623, 824.244 7.144, 864.537 7.117, 864.678 4.374, 869.813 0.000, 856.961 0.000, 823.930 " fill = "none" stroke = "black"/>
</g>
<g>
<polygon points = "996.294, 2.533 996.826, 2.219 997.520, 2.415 997.477, 3.921 996.336, 3.225 " fill = "none" stroke = "black"/>
</g>
<g>
<polygon points = "974.520, 0.349 976.827, 3.078 950.040, 13.628 941.393, 4.228 959.281, 0.439 967.227, 0.000 971.798, 0.000 " fill = "none" stroke = "black"/>
</g>
<g>
<polygon points = "997.260, 995.023 997.243, 994.953 998.620, 993.629 998.671, 994.715 998.523, 994.993 " fill = "none" stroke = "black"/>
</g>
<g>
<polygon points = "3.173, 0.853 2.387, 1.148 2.189, 0.539 2.369, 0.000 3.278, 0.000 " fill = "none" stroke = "black"/>
</g>
<g>
<polygon points = "1.154, 999.004 1.176, 998.964 1.224, 998.884 1.270, 998.887 2.634, 999.463 2.811, 1000.000 1.632, 1000.000 " fill = "none" stroke = "black"/>
</g>
<g>
<polygon points = "" fill = "none" stroke = "black"/>
</g>
<g>
<polygon points = "2.151, 4.588 2.019, 4.698 1.531, 4.235 1.757, 3.820 2.448, 3.528 " fill = "none" stroke = "black"/>
</g>
<g>
<polygon points = "0.042, 7.595 0.000, 7.728 0.000, 7.435 " fill = "none" stroke = "black"/>
</g>
<g>
<polygon points = "" fill = "none" stroke = "black"/>
</g>
<g>
<polygon points = "" fill = "none" stroke = "black"/>
</g>
<g>
<polygon points = "" fill = "none" stroke = "black"/>
</g>
<g>
<polygon points = "0.618, 3.946 0.516, 4.705 0.000, 5.211 0.000, 3.734 " fill = "none" stroke = "black"/>
</g>
<g>
<polygon points = "373.775, 96.644 363.390, 45.488 374.257, 41.384 525.567, 27.379 460.356, 80.704 " fill = "none" stroke = "black"/>
</g>
<g>
<polygon points = "544.096, 286.643 634.028, 321.864 679.891, 382.979 550.183, 528.133 502.450, 428.160 496.767, 331.682 " fill = "none" stroke = "black"/>
</g>
<g>
<polygon points = "998.134, 0.776 997.837, 1.156 996.615, 0.916 996.883, 0.000 997.722, 0.000 " fill = "none" stroke = "black"/>
</g>
<g>
<polygon points = "996.205, 1.359 996.294, 1.429 996.826, 2.219 996.294, 2.533 995.519, 1.998 995.620, 1.356 " fill = "none" stroke = "black"/>
</g>
<g>
<polygon points = "" fill = "none" stroke = "black"/>
</g>
<g>
<polygon points = "" fill = "none" stroke = "black"/>
</g>
<g>
<polygon points = "" fill = "none" stroke = "black"/>
</g>
<g>
<polygon points = "4.374, 869.813 0.000, 889.001 0.000, 856.961 " fill = "none" stroke = "black"/>
</g>
<g>
<polygon points = "664.436, 17.884 664.606, 17.790 705.634, 7.253 734.649, 18.456 742.368, 34.046 736.201, 41.223 691.704, 57.374 688.803, 57.267 663.319, 39.533 " fill = "none" stroke = "black"/>
</g>
<g>
<polygon points = "" fill = "none" stroke = "black"/>
</g>
<g>
<polygon points = "864.109, 990.963 868.745, 992.023 850.124, 1000.000 785.802, 1000.000 " fill = "none" stroke = "black"/>
</g>
<g>
<polygon points = "4.784, 997.371 6.357, 998.035 6.220, 998.149 5.155, 998.082 5.153, 998.081 " fill = "none" stroke = "black"/>
</g>
<g>
<polygon points = "999.560, 75.224 999.048, 60.386 999.224, 59.492 999.861, 57.739 1000.000, 58.368 1000.000, 75.996 " fill = "none" stroke = "black"/>
</g>
<g>
<polygon points = "993.378, 450.700 998.505, 467.675 997.589, 538.607 996.318, 552.899 991.259, 512.368 " fill = "none" stroke = "black"/>
</g>
<g>
<polygon points = "999.119, 5.589 999.119, 4.335 999.722, 4.077 1000.000, 4.286 1000.000, 4.361 " fill = "none" stroke = "black"/>
</g>
<g>
<polygon points = "999.598, 0.467 998.134, 0.776 997.722, 0.000 1000.000, 0.000 1000.000, 0.072 " fill = "none" stroke = "black"/>
</g>
<g>
<polygon points = "999.657, 12.224 999.440, 13.988 998.428, 14.982 997.546, 14.643 997.188, 10.018 999.085, 8.764 999.542, 10.121 " fill = "none" stroke = "black"/>
</g>
<g>
<polygon points = "634.757, 11.567 664.436, 17.884 663.319, 39.533 527.059, 26.602 525.953, 24.601 539.353, 12.465 " fill = "none" stroke = "black"/>
</g>
<g>
<polygon points = "" fill = "none" stroke = "black"/>
</g>
<g>
<polygon points = "994.255, 997.365 995.149, 997.061 995.714, 998.273 995.393, 998.768 994.338, 999.140 " fill = "none" stroke = "black"/>
</g>
<g>
<polygon points = "996.060, 999.686 997.402, 998.663 997.594, 998.661 997.727, 998.862 996.859, 1000.000 996.110, 1000.000 " fill = "none" stroke = "black"/>
</g>
<g>
<polygon points = "518.926, 996.984 535.747, 997.724 539.964, 1000.000 484.559, 1000.000 " fill = "none" stroke = "black"/>
</g>
<g>
<polygon points = "999.808, 12.920 999.657, 12.224 999.542, 10.121 999.647, 9.489 1000.000, 11.699 1000.000, 12.503 " fill = "none" stroke = "black"/>
</g>
<g>
<polygon points = "999.706, 19.331 998.733, 20.724 998.428, 14.982 999.440, 13.988 999.733, 14.111 999.895, 16.250 " fill = "none" stroke = "black"/>
</g>
<g>
<polygon points = "941.393, 4.228 950.040, 13.628 947.312, 17.831 925.467, 16.993 904.414, 4.893 926.991, 2.490 " fill = "none" stroke = "black"/>
</g>
<g>
<polygon points = "991.265, 0.698 992.309, 0.120 994.017, 0.658 994.145, 0.749 994.413, 1.829 993.205, 2.201 991.142, 1.415 " fill = "none" stroke = "black"/>
</g>
<g>
<polygon points = "999.285, 214.672 995.848, 189.057 998.054, 177.514 1000.000, 177.506 1000.000, 216.475 " fill = "none" stroke = "black"/>
</g>
<g>
<polygon points = "5.250, 999.313 5.989, 999.257 6.041, 999.293 5.976, 999.414 5.428, 1000.000 4.935, 1000.000 " fill = "none" stroke = "black"/>
</g>
<g>
<polygon points = "876.890, 992.874 899.917, 993.942 908.767, 1000.000 878.380, 1000.000 " fill = "none" stroke = "black"/>
</g>
<g>
<polygon points = "1.525, 5.272 0.925, 6.075 1.039, 5.471 " fill = "none" stroke = "black"/>
</g>
<g>
<polygon points = "998.613, 21.414 998.733, 20.724 999.706, 19.331 1000.000, 20.835 1000.000, 25.103 " fill = "none" stroke = "black"/>
</g>
<g>
<polygon points = "" fill = "none" stroke = "black"/>
</g>
<g>
<polygon points = "2.985, 998.862 2.221, 998.442 1.502, 997.712 2.584, 997.988 3.232, 998.887 " fill = "none" stroke = "black"/>
</g>
<g>
<polygon points = "974.580, 942.492 977.021, 929.381 987.319, 905.023 998.743, 944.479 " fill = "none" stroke = "black"/>
</g>
<g>
<polygon points = "351.824, 123.505 300.304, 194.389 241.752, 225.673 223.765, 211.096 248.595, 95.560 319.655, 92.095 362.127, 102.079 " fill = "none" stroke = "black"/>
</g>
<g>
<polygon points = "997.594, 998.661 998.343, 997.473 998.656, 997.219 999.003, 997.322 998.275, 999.225 997.727, 998.862 " fill = "none" stroke = "black"/>
</g>
<g>
<polygon points = "571.365, 858.369 725.031, 881.563 705.335, 955.469 622.913, 984.966 " fill = "none" stroke = "black"/>
</g>
<g>
<polygon points = "2.253, 996.634 1.455, 996.054 1.116, 994.356 1.128, 993.263 4.140, 996.825 " fill = "none" stroke = "black"/>
</g>
<g>
<polygon points = "45.426, 1.978 32.525, 3.094 33.178, 0.000 44.587, 0.000 " fill = "none" stroke = "black"/>
</g>
<g>
<polygon points = "863.885, 19.370 863.996, 13.767 889.616, 3.449 904.414, 4.893 925.467, 16.993 875.651, 25.790 " fill = "none" stroke = "black"/>
</g>
<g>
<polygon points = "" fill = "none" stroke = "black"/>
</g>
<g>
<polygon points = "998.428, 14.982 998.733, 20.724 998.613, 21.414 996.729, 23.915 990.723, 28.898 989.791, 27.481 995.556, 15.130 997.546, 14.643 " fill = "none" stroke = "black"/>
</g>
<g>
<polygon points = "7.358, 2.236 3.916, 2.214 4.508, 1.711 5.470, 1.042 5.837, 0.876 6.443, 0.725 " fill = "none" stroke = "black"/>
</g>
<g>
<polygon points = "725.031, 881.563 778.174, 843.063 842.538, 845.125 849.373, 871.739 783.126, 954.781 705.335, 955.469 " fill = "none" stroke = "black"/>
</g>
<g>
<polygon points = "" fill = "none" stroke = "black"/>
</g>
<g>
<polygon points = "778.174, 843.063 703.325, 787.959 670.202, 698.780 710.433, 703.951 857.227, 760.971 858.002, 767.805 842.538, 845.125 " fill = "none" stroke = "black"/>
</g>
<g>
<polygon points = "205.001, 998.556 244.431, 995.092 258.818, 1000.000 204.088, 1000.000 " fill = "none" stroke = "black"/>
</g>
<g>
<polygon points = "" fill = "none" stroke = "black"/>
</g>
<g>
<polygon points = "" fill = "none" stroke = "black"/>
</g>
<g>
<polygon points = "989.302, 996.130 994.695, 994.441 994.088, 997.390 992.850, 998.029 991.232, 998.308 991.189, 998.305 989.279, 997.040 " fill = "none" stroke = "black"/>
</g>
<g>
<polygon points = "993.016, 82.876 994.505, 85.897 997.771, 111.700 998.670, 125.469 998.054, 177.514 995.848, 189.057 994.942, 188.778 978.192, 131.041 " fill = "none" stroke = "black"/>
</g>
<g>
<polygon points = "899.917, 993.942 876.890, 992.874 868.745, 992.023 864.109, 990.963 857.494, 964.095 888.673, 940.534 913.637, 969.429 910.355, 980.917 " fill = "none" stroke = "black"/>
</g>
<g>
<polygon points = "992.509, 7.244 995.556, 15.130 989.791, 27.481 989.198, 27.308 982.122, 4.298 " fill = "none" stroke = "black"/>
</g>
<g>
<polygon points = "989.302, 996.130 989.279, 997.040 986.625, 1000.000 974.547, 1000.000 971.198, 997.429 986.034, 994.688 " fill = "none" stroke = "black"/>
</g>
<g>
<polygon points = "44.955, 414.556 51.851, 405.273 120.073, 436.875 102.290, 527.262 26.892, 555.314 " fill = "none" stroke = "black"/>
</g>
<g>
<polygon points = "" fill = "none" stroke = "black"/>
</g>
<g>
<polygon points = "16.640, 999.746 17.271, 999.732 19.858, 999.860 21.283, 1000.000 14.433, 1000.000 " fill = "none" stroke = "black"/>
</g>
<g>
<polygon points = "997.112, 578.820 996.318, 552.899 997.589, 538.607 1000.000, 535.863 1000.000, 575.076 " fill = "none" stroke = "black"/>
</g>
<g>
<polygon points = "999.768, 986.385 998.653, 988.825 996.498, 985.690 990.774, 958.308 999.193, 949.613 1000.000, 956.134 1000.000, 984.342 " fill = "none" stroke = "black"/>
</g>
<g>
<polygon points = "154.580, 178.203 223.765, 211.096 241.752, 225.673 229.386, 280.170 96.689, 266.927 81.677, 221.706 " fill = "none" stroke = "black"/>
</g>
<g>
<polygon points = "679.891, 382.979 721.297, 382.839 746.606, 567.355 550.198, 556.777 550.183, 528.133 " fill = "none" stroke = "black"/>
</g>
<g>
<polygon points = "308.437, 1.319 295.688, 0.000 357.428, 0.000 " fill = "none" stroke = "black"/>
</g>
<g>
<polygon points = "7.358, 2.236 7.425, 2.295 4.426, 6.217 2.151, 4.588 2.448, 3.528 2.728, 3.144 2.846, 3.017 3.916, 2.214 " fill = "none" stroke = "black"/>
</g>
<g>
<polygon points = "993.016, 82.876 978.192, 131.041 958.474, 112.383 934.949, 80.788 961.166, 60.795 989.912, 68.617 " fill = "none" stroke = "black"/>
</g>
<g>
<polygon points = "4.212, 132.535 0.000, 145.222 0.000, 121.637 " fill = "none" stroke = "black"/>
</g>
<g>
<polygon points = "0.623, 824.244 10.186, 808.520 31.032, 833.248 7.144, 864.537 " fill = "none" stroke = "black"/>
</g>
<g>
<polygon points = "" fill = "none" stroke = "black"/>
</g>
<g>
<polygon points = "999.871, 992.296 999.234, 994.172 998.671, 994.715 998.620, 993.629 999.124, 991.630 " fill = "none" stroke = "black"/>
</g>
<g>
<polygon points = "" fill = "none" stroke = "black"/>
</g>
<g>
<polygon points = "" fill = "none" stroke = "black"/>
</g>
<g>
<polygon points = "4.212, 132.535 7.391, 135.457 4.417, 170.399 0.000, 160.276 0.000, 145.222 " fill = "none" stroke = "black"/>
</g>
<g>
<polygon points = "5.465, 0.696 5.542, 0.660 5.837, 0.876 5.470, 1.042 " fill = "none" stroke = "black"/>
</g>
<g>
<polygon points = "0.190, 998.007 1.082, 997.212 1.308, 997.596 1.224, 998.884 1.176, 998.964 " fill = "none" stroke = "black"/>
</g>
<g>
<polygon points = "" fill = "none" stroke = "black"/>
</g>
<g>
<polygon points = "992.850, 998.029 994.088, 997.390 994.255, 997.365 994.338, 999.140 993.779, 999.423 992.901, 999.454 992.843, 998.063 " fill = "none" stroke = "black"/>
</g>
<g>
<polygon points = "3.711, 630.703 13.286, 625.434 13.815, 633.024 9.671, 804.800 0.000, 757.177 0.000, 651.236 " fill = "none" stroke = "black"/>
</g>
<g>
<polygon points = "974.238, 421.680 988.474, 412.314 993.377, 450.677 993.378, 450.700 991.259, 512.368 974.829, 509.715 967.059, 451.373 " fill = "none" stroke = "black"/>
</g>
<g>
<polygon points = "" fill = "none" stroke = "black"/>
</g>
<g>
<polygon points = "997.179, 996.291 997.776, 995.961 997.533, 997.193 997.359, 997.336 996.879, 997.450 " fill = "none" stroke = "black"/>
</g>
<g>
<polygon points = "802.907, 1.598 802.975, 2.049 800.783, 2.532 752.183, 6.431 742.669, 0.000 765.308, 0.000 " fill = "none" stroke = "black"/>
</g>
<g>
<polygon points = "0.196, 926.883 2.178, 952.854 2.388, 963.264 2.086, 964.318 0.000, 958.230 0.000, 926.683 " fill = "none" stroke = "black"/>
</g>
<g>
<polygon points = "999.048, 60.386 999.560, 75.224 996.191, 83.712 994.505, 85.897 993.016, 82.876 989.912, 68.617 990.363, 66.829 " fill = "none" stroke = "black"/>
</g>
<g>
<polygon points = "96.784, 923.499 29.012, 899.288 38.115, 834.055 42.331, 831.046 64.669, 824.825 98.939, 902.286 " fill = "none" stroke = "black"/>
</g>
<g>
<polygon points = "525.953, 24.601 527.059, 26.602 525.567, 27.379 374.257, 41.384 390.218, 0.000 440.852, 0.000 " fill = "none" stroke = "black"/>
</g>
<g>
<polygon points = "0.652, 991.909 0.780, 991.920 0.827, 992.028 1.128, 993.263 1.116, 994.356 0.788, 995.702 0.496, 995.723 0.000, 993.565 0.000, 992.816 " fill = "none" stroke = "black"/>
</g>
<g>
<polygon points = "" fill = "none" stroke = "black"/>
</g>
<g>
<polygon points = "" fill = "none" stroke = "black"/>
</g>
<g>
<polygon points = "7.447, 999.475 6.041, 999.293 5.989, 999.257 5.155, 998.082 6.220, 998.149 " fill = "none" stroke = "black"/>
</g>
<g>
<polygon points = "999.871, 992.296 999.124, 991.630 999.006, 991.196 999.970, 987.961 1000.000, 988.039 1000.000, 992.257 " fill = "none" stroke = "black"/>
</g>
<g>
<polygon points = "0.190, 998.007 1.176, 998.964 1.154, 999.004 0.000, 999.569 0.000, 998.129 " fill = "none" stroke = "black"/>
</g>
<g>
<polygon points = "" fill = "none" stroke = "black"/>
</g>
<g>
<polygon points = "228.948, 403.060 229.386, 280.170 241.752, 225.673 300.304, 194.389 352.765, 344.664 240.947, 414.081 " fill = "none" stroke = "black"/>
</g>
<g>
<polygon points = "752.183, 6.431 734.649, 18.456 705.634, 7.253 707.089, 2.274 713.378, 0.000 742.669, 0.000 " fill = "none" stroke = "black"/>
</g>
<g>
<polygon points = "" fill = "none" stroke = "black"/>
</g>
<g>
<polygon points = "" fill = "none" stroke = "black"/>
</g>
<g>
<polygon points = "891.292, 238.995 917.958, 284.435 915.417, 325.924 760.070, 387.264 727.128, 378.755 775.103, 265.506 " fill = "none" stroke = "black"/>
</g>
<g>
<polygon points = "9.009, 999.860 7.447, 999.475 6.220, 998.149 6.357, 998.035 16.640, 999.746 14.433, 1000.000 9.632, 1000.000 " fill = "none" stroke = "black"/>
</g>
<g>
<polygon points = "0.279, 33.595 2.172, 25.466 2.345, 25.081 22.836, 30.474 23.940, 31.036 7.303, 56.951 0.080, 61.622 0.000, 61.542 0.000, 44.651 " fill = "none" stroke = "black"/>
</g>
<g>
<polygon points = "63.651, 997.880 73.441, 1000.000 54.405, 1000.000 " fill = "none" stroke = "black"/>
</g>
<g>
<polygon points = "2.086, 964.318 1.337, 969.803 0.000, 970.973 0.000, 958.230 " fill = "none" stroke = "black"/>
</g>
<g>
<polygon points = "992.883, 303.877 999.285, 214.672 1000.000, 216.475 1000.000, 323.509 " fill = "none" stroke = "black"/>
</g>
<g>
<polygon points = "992.883, 303.877 973.870, 298.226 967.868, 284.031 994.942, 188.778 995.848, 189.057 999.285, 214.672 " fill = "none" stroke = "black"/>
</g>
<g>
<polygon points = "999.722, 4.077 999.119, 4.335 998.725, 3.213 999.277, 2.941 " fill = "none" stroke = "black"/>
</g>
<g>
<polygon points = "" fill = "none" stroke = "black"/>
</g>
<g>
<polygon points = "993.377, 450.677 988.474, 412.314 1000.000, 345.800 1000.000, 389.200 " fill = "none" stroke = "black"/>
</g>
<g>
<polygon points = "" fill = "none" stroke = "black"/>
</g>
<g>
<polygon points = "311.618, 997.511 423.461, 981.139 461.279, 991.295 419.821, 1000.000 314.657, 1000.000 " fill = "none" stroke = "black"/>
</g>
<g>
<polygon points = "90.237, 11.850 120.853, 17.877 124.321, 26.417 55.154, 63.673 45.227, 64.898 40.920, 35.626 64.685, 15.028 " fill = "none" stroke = "black"/>
</g>
<g>
<polygon points = "" fill = "none" stroke = "black"/>
</g>
<g>
<polygon points = "1.116, 994.356 1.455, 996.054 1.107, 996.141 0.788, 995.702 " fill = "none" stroke = "black"/>
</g>
<g>
<polygon points = "4.381, 0.664 4.470, 0.655 5.465, 0.696 5.470, 1.042 4.508, 1.711 3.706, 1.258 " fill = "none" stroke = "black"/>
</g>
<g>
<polygon points = "995.659, 998.855 996.346, 998.691 995.875, 999.045 " fill = "none" stroke = "black"/>
</g>
<g>
<polygon points = "0.011, 601.198 3.711, 630.703 0.000, 651.236 0.000, 601.186 " fill = "none" stroke = "black"/>
</g>
<g>
<polygon points = "540.262, 599.577 541.380, 635.412 411.844, 710.467 406.372, 711.865 393.517, 706.013 300.344, 505.311 " fill = "none" stroke = "black"/>
</g>
<g>
<polygon points = "959.281, 0.439 941.393, 4.228 926.991, 2.490 924.675, 0.000 946.949, 0.000 " fill = "none" stroke = "black"/>
</g>
<g>
<polygon points = "" fill = "none" stroke = "black"/>
</g>
<g>
<polygon points = "983.961, 0.128 987.923, 1.183 985.058, 1.766 979.826, 0.000 982.394, 0.000 " fill = "none" stroke = "black"/>
</g>
<g>
<polygon points = "991.279, 754.525 976.993, 730.906 976.367, 615.621 977.714, 613.465 995.133, 620.769 998.195, 634.694 1000.000, 643.810 1000.000, 697.093 " fill = "none" stroke = "black"/>
</g>
<g>
<polygon points = "17.189, 0.057 7.425, 2.295 7.358, 2.236 6.443, 0.725 7.949, 0.000 17.148, 0.000 " fill = "none" stroke = "black"/>
</g>
<g>
<polygon points = "0.644, 2.392 1.113, 3.420 0.972, 3.799 0.618, 3.946 0.000, 3.734 0.000, 3.070 " fill = "none" stroke = "black"/>
</g>
<g>
<polygon points = "" fill = "none" stroke = "black"/>
</g>
<g>
<polygon points = "7.303, 56.951 40.002, 73.950 24.115, 116.009 1.475, 66.012 0.080, 61.622 " fill = "none" stroke = "black"/>
</g>
<g>
<polygon points = "" fill = "none" stroke = "black"/>
</g>
<g>
<polygon points = "999.875, 13.472 999.808, 12.920 1000.000, 12.503 1000.000, 13.319 " fill = "none" stroke = "black"/>
</g>
<g>
<polygon points = "" fill = "none" stroke = "black"/>
</g>
<g>
<polygon points = "996.615, 0.916 996.448, 1.002 994.811, 0.000 996.883, 0.000 " fill = "none" stroke = "black"/>
</g>
<g>
<polygon points = "991.196, 0.298 991.265, 0.698 991.142, 1.415 988.212, 1.182 " fill = "none" stroke = "black"/>
</g>
<g>
<polygon points = "736.201, 41.223 742.368, 34.046 776.137, 26.675 863.885, 19.370 875.651, 25.790 889.077, 57.372 885.815, 73.498 " fill = "none" stroke = "black"/>
</g>
<g>
<polygon points = "131.784, 0.014 213.037, 2.169 210.939, 4.589 149.996, 7.775 " fill = "none" stroke = "black"/>
</g>
<g>
<polygon points = "1.497, 1.718 1.658, 2.925 1.113, 3.420 0.644, 2.392 0.806, 1.832 1.024, 1.741 " fill = "none" stroke = "black"/>
</g>
<g>
<polygon points = "" fill = "none" stroke = "black"/>
</g>
<g>
<polygon points = "999.049, 999.866 999.076, 997.309 999.736, 996.748 1000.000, 996.769 1000.000, 996.983 " fill = "none" stroke = "black"/>
</g>
<g>
<polygon points = "" fill = "none" stroke = "black"/>
</g>
<g>
<polygon points = "170.057, 994.601 101.145, 951.638 96.784, 923.499 98.939, 902.286 135.869, 899.400 266.230, 991.553 244.431, 995.092 205.001, 998.556 " fill = "none" stroke = "black"/>
</g>
<g>
<polygon points = "14.397, 6.820 4.529, 6.468 4.426, 6.217 7.425, 2.295 17.189, 0.057 31.724, 3.508 31.910, 3.681 " fill = "none" stroke = "black"/>
</g>
<g>
<polygon points = "999.048, 60.386 990.363, 66.829 991.007, 30.395 992.232, 32.368 999.224, 59.492 " fill = "none" stroke = "black"/>
</g>
<g>
<polygon points = "2.525, 17.724 2.345, 25.081 2.172, 25.466 0.000, 18.097 0.000, 16.797 " fill = "none" stroke = "black"/>
</g>
<g>
<polygon points = "" fill = "none" stroke = "black"/>
</g>
<g>
<polygon points = "996.191, 83.712 999.560, 75.224 1000.000, 75.996 1000.000, 100.306 " fill = "none" stroke = "black"/>
</g>
<g>
<polygon points = "4.349, 996.953 4.140, 996.825 1.128, 993.263 0.827, 992.028 1.738, 989.881 3.253, 990.876 " fill = "none" stroke = "black"/>
</g>
<g>
<polygon points = "" fill = "none" stroke = "black"/>
</g>
<g>
<polygon points = "691.704, 57.374 716.067, 109.130 634.028, 321.864 544.096, 286.643 611.840, 115.487 688.803, 57.267 " fill = "none" stroke = "black"/>
</g>
<g>
<polygon points = "634.757, 11.567 539.353, 12.465 535.093, 1.485 588.287, 0.000 614.250, 0.000 " fill = "none" stroke = "black"/>
</g>
<g>
<polygon points = "890.023, 99.447 949.224, 236.904 957.422, 279.938 917.958, 284.435 891.292, 238.995 880.236, 142.297 " fill = "none" stroke = "black"/>
</g>
<g>
<polygon points = "999.875, 45.589 999.602, 42.043 1000.000, 35.184 1000.000, 44.608 " fill = "none" stroke = "black"/>
</g>
<g>
<polygon points = "1.829, 239.132 0.000, 265.190 0.000, 219.914 0.246, 219.655 " fill = "none" stroke = "black"/>
</g>
<g>
<polygon points = "0.618, 3.946 0.972, 3.799 1.757, 3.820 1.531, 4.235 0.763, 4.724 0.516, 4.705 " fill = "none" stroke = "black"/>
</g>
<g>
<polygon points = "2.178, 952.854 40.397, 939.570 41.569, 941.201 35.020, 982.524 19.419, 978.503 2.388, 963.264 " fill = "none" stroke = "black"/>
</g>
<g>
<polygon points = "" fill = "none" stroke = "black"/>
</g>
<g>
<polygon points = "81.677, 221.706 52.686, 194.774 41.381, 143.147 135.733, 110.031 154.580, 178.203 " fill = "none" stroke = "black"/>
</g>
<g>
<polygon points = "4.349, 996.953 3.253, 990.876 7.600, 991.831 18.264, 999.667 17.271, 999.732 16.640, 999.746 6.357, 998.035 4.784, 997.371 " fill = "none" stroke = "black"/>
</g>
<g>
<polygon points = "994.017, 0.658 994.452, 0.422 996.200, 1.314 996.205, 1.359 995.620, 1.356 994.145, 0.749 " fill = "none" stroke = "black"/>
</g>
<g>
<polygon points = "" fill = "none" stroke = "black"/>
</g>
<g>
<polygon points = "999.561, 605.540 996.173, 610.360 997.112, 578.820 1000.000, 575.076 1000.000, 604.376 " fill = "none" stroke = "black"/>
</g>
<g>
<polygon points = "993.205, 2.201 994.413, 1.829 995.519, 1.998 996.294, 2.533 996.336, 3.225 994.670, 3.578 994.662, 3.576 " fill = "none" stroke = "black"/>
</g>
<g>
<polygon points = "0.333, 987.332 0.405, 988.276 0.000, 987.503 0.000, 984.926 " fill = "none" stroke = "black"/>
</g>
<g>
<polygon points = "149.996, 7.775 210.939, 4.589 237.975, 16.167 234.411, 20.985 167.133, 46.982 124.321, 26.417 120.853, 17.877 " fill = "none" stroke = "black"/>
</g>
<g>
<polygon points = "" fill = "none" stroke = "black"/>
</g>
<g>
<polygon points = "999.100, 895.657 999.965, 867.967 1000.000, 867.941 1000.000, 908.991 " fill = "none" stroke = "black"/>
</g>
<g>
<polygon points = "999.706, 19.331 999.895, 16.250 1000.000, 16.534 1000.000, 20.835 " fill = "none" stroke = "black"/>
</g>
<g>
<polygon points = "" fill = "none" stroke = "black"/>
</g>
<g>
<polygon points = "959.281, 0.439 946.949, 0.000 967.227, 0.000 " fill = "none" stroke = "black"/>
</g>
<g>
<polygon points = "997.771, 111.700 994.505, 85.897 996.191, 83.712 1000.000, 100.306 1000.000, 101.601 " fill = "none" stroke = "black"/>
</g>
<g>
<polygon points = "5.542, 0.660 5.465, 0.696 4.470, 0.655 4.960, 0.000 6.006, 0.000 " fill = "none" stroke = "black"/>
</g>
<g>
<polygon points = "" fill = "none" stroke = "black"/>
</g>
<g>
<polygon points = "999.970, 987.961 999.006, 991.196 998.268, 990.590 998.653, 988.825 999.768, 986.385 " fill = "none" stroke = "black"/>
</g>
<g>
<polygon points = "" fill = "none" stroke = "black"/>
</g>
<g>
<polygon points = "131.784, 0.014 149.996, 7.775 120.853, 17.877 90.237, 11.850 94.685, 0.110 95.088, 0.000 131.706, 0.000 " fill = "none" stroke = "black"/>
</g>
<g>
<polygon points = "994.088, 997.390 994.695, 994.441 996.141, 993.548 997.243, 994.953 997.260, 995.023 996.401, 996.159 995.149, 997.061 994.255, 997.365 " fill = "none" stroke = "black"/>
</g>
<g>
<polygon points = "4.381, 0.664 3.706, 1.258 3.556, 1.341 3.173, 0.853 3.278, 0.000 3.984, 0.000 " fill = "none" stroke = "black"/>
</g>
<g>
<polygon points = "244.431, 995.092 266.230, 991.553 270.589, 991.165 311.618, 997.511 314.657, 1000.000 258.818, 1000.000 " fill = "none" stroke = "black"/>
</g>
<g>
<polygon points = "170.057, 994.601 205.001, 998.556 204.088, 1000.000 130.761, 1000.000 " fill = "none" stroke = "black"/>
</g>
<g>
<polygon points = "7.447, 999.475 9.009, 999.860 6.871, 999.746 5.976, 999.414 6.041, 999.293 " fill = "none" stroke = "black"/>
</g>
<g>
<polygon points = "1.222, 976.943 1.519, 989.577 0.839, 989.931 0.552, 989.478 0.405, 988.276 0.333, 987.332 0.000, 979.927 0.000, 979.055 " fill = "none" stroke = "black"/>
</g>
<g>
<polygon points = "302.476, 926.535 292.476, 884.112 316.183, 807.453 387.239, 738.704 413.301, 915.213 " fill = "none" stroke = "black"/>
</g>
<g>
<polygon points = "" fill = "none" stroke = "black"/>
</g>
<g>
<polygon points = "846.992, 4.114 802.975, 2.049 802.907, 1.598 810.190, 0.000 854.364, 0.000 " fill = "none" stroke = "black"/>
</g>
<g>
<polygon points = "63.651, 997.880 66.972, 992.532 72.457, 991.160 95.046, 999.128 75.787, 1000.000 73.441, 1000.000 " fill = "none" stroke = "black"/>
</g>
<g>
<polygon points = "0.405, 988.276 0.552, 989.478 0.000, 990.039 0.000, 987.503 " fill = "none" stroke = "black"/>
</g>
<g>
<polygon points = "950.040, 13.628 976.827, 3.078 977.892, 3.646 973.228, 24.935 964.382, 28.106 963.016, 27.787 947.312, 17.831 " fill = "none" stroke = "black"/>
</g>
<g>
<polygon points = "" fill = "none" stroke = "black"/>
</g>
<g>
<polygon points = "" fill = "none" stroke = "black"/>
</g>
<g>
<polygon points = "2.253, 996.634 4.140, 996.825 4.349, 996.953 4.784, 997.371 5.153, 998.081 4.176, 998.318 2.720, 997.638 " fill = "none" stroke = "black"/>
</g>
<g>
<polygon points = "973.870, 298.226 974.238, 421.680 967.059, 451.373 944.896, 441.872 943.173, 437.427 915.417, 325.924 917.958, 284.435 957.422, 279.938 967.868, 284.031 " fill = "none" stroke = "black"/>
</g>
<g>
<polygon points = "533.126, 832.881 571.365, 858.369 622.913, 984.966 613.863, 990.814 470.481, 918.535 513.557, 846.691 " fill = "none" stroke = "black"/>
</g>
<g>
<polygon points = "" fill = "none" stroke = "black"/>
</g>
<g>
<polygon points = "983.961, 0.128 982.394, 0.000 991.223, 0.000 " fill = "none" stroke = "black"/>
</g>
<g>
<polygon points = "965.123, 868.535 977.021, 929.381 974.580, 942.492 971.217, 948.487 966.118, 951.415 910.668, 920.090 " fill = "none" stroke = "black"/>
</g>
<g>
<polygon points = "" fill = "none" stroke = "black"/>
</g>
<g>
<polygon points = "997.520, 2.415 997.685, 2.387 998.509, 3.032 998.517, 3.044 997.856, 4.337 997.477, 3.921 " fill = "none" stroke = "black"/>
</g>
<g>
<polygon points = "" fill = "none" stroke = "black"/>
</g>
<g>
<polygon points = "999.970, 987.961 999.768, 986.385 1000.000, 984.342 1000.000, 988.039 " fill = "none" stroke = "black"/>
</g>
<g>
<polygon points = "" fill = "none" stroke = "black"/>
</g>
<circle cx = "330.410" cy = "192.956" r = "5" fill = "red" />
<circle cx = "811.024" cy = "357.311" r = "5" fill = "red" />
<circle cx = "457.598" cy = "111.926" r = "5" fill = "red" />
<circle cx = "831.207" cy = "418.252" r = "5" fill = "red" />
<circle cx = "37.239" cy = "26.374" r = "5" fill = "red" />
<circle cx = "367.038" cy = "59.603" r = "5" fill = "red" />
<circle cx = "737.174" cy = "688.706" r = "5" fill = "red" />
<circle cx = "898.434" cy = "203.707" r = "5" fill = "red" />
<circle cx = "903.639" cy = "473.910" r = "5" fill = "red" />
<circle cx = "474.125" cy = "603.593" r = "5" fill = "red" />
<circle cx = "437.072" cy = "539.924" r = "5" fill = "red" />
<circle cx = "146.734" cy = "434.088" r = "5" fill = "red" />
<circle cx = "644.581" cy = "670.168" r = "5" fill = "red" />
<circle cx = "756.731" cy = "646.023" r = "5" fill = "red" />
<circle cx = "91.750" cy = "676.771" r = "5" fill = "red" />
<circle cx = "484.325" cy = "145.355" r = "5" fill = "red" />
<circle cx = "11.652" cy = "890.747" r = "5" fill = "red" />
<circle cx = "278.203" cy = "698.611" r = "5" fill = "red" />
<circle cx = "949.905" cy = "451.515" r = "5" fill = "red" />
<circle cx = "13.759" cy = "45.766" r = "5" fill = "red" />
<circle cx = "408.910" cy = "360.670" r = "5" fill = "red" />
<circle cx = "478.888" cy = "377.202" r = "5" fill = "red" />
<circle cx = "674.437" cy = "802.467" r = "5" fill = "red" />
<circle cx = "914.142" cy = "999.837" r = "5" fill = "red" />
<circle cx = "42.690" cy = "632.404" r = "5" fill = "red" />
<circle cx = "162.965" cy = "425.067" r = "5" fill = "red" />
<circle cx = "574.939" cy = "655.294" r = "5" fill = "red" />
<circle cx = "87.538" cy = "704.721" r = "5" fill = "red" />
<circle cx = "309.102" cy = "165.930" r = "5" fill = "red" />
<circle cx = "460.078" cy = "484.193" r = "5" fill = "red" />
<circle cx = "228.700" cy = "614.068" r = "5" fill = "red" />
<circle cx = "865.386" cy = "244.678" r = "5" fill = "red" />
<circle cx = "163.645" cy = "886.872" r = "5" fill = "red" />
<circle cx = "41.782" cy = "203.410" r = "5" fill = "red" />
<circle cx = "744.362" cy = "873.708" r = "5" fill = "red" />
<circle cx = "651.730" cy = "326.552" r = "5" fill = "red" />
<circle cx = "76.294" cy = "756.262" r = "5" fill = "red" />
<circle cx = "323.893" cy = "291.252" r = "5" fill = "red" />
<circle cx = "693.240" cy = "630.491" r = "5" fill = "red" />
<circle cx = "586.847" cy = "116.474" r = "5" fill = "red" />
<circle cx = "639.715" cy = "20.169" r = "5" fill = "red" />
<circle cx = "45.333" cy = "8.022" r = "5" fill = "red" />
<circle cx = "379.569" cy = "530.243" r = "5" fill = "red" />
<circle cx = "865.643" cy = "566.109" r = "5" fill = "red" />
<circle cx = "724.734" cy = "286.500" r = "5" fill = "red" />
<circle cx = "6.114" cy = "691.619" r = "5" fill = "red" />
<circle cx = "271.830" cy = "905.382" r = "5" fill = "red" />
<circle cx = "19.046" cy = "666.827" r = "5" fill = "red" />
<circle cx = "75.181" cy = "860.725" r = "5" fill = "red" />
<circle cx = "62.391" cy = "54.538" r = "5" fill = "red" />
<circle cx = "361.951" cy = "479.680" r = "5" fill = "red" />
<circle cx = "21.688" cy = "776.767" r = "5" fill = "red" />
<circle cx = "916.084" cy = "834.836" r = "5" fill = "red" />
<circle cx = "543.024" cy = "669.194" r = "5" fill = "red" />
<circle cx = "645.510" cy = "580.325" r = "5" fill = "red" />
<circle cx = "844.087" cy = "674.626" r = "5" fill = "red" />
<circle cx = "820.944" cy = "342.083" r = "5" fill = "red" />
<circle cx = "801.218" cy = "149.459" r = "5" fill = "red" />
<circle cx = "63.152" cy = "194.895" r = "5" fill = "red" />
<circle cx = "184.322" cy = "510.313" r = "5" fill = "red" />
<circle cx = "700.018" cy = "9.770" r = "5" fill = "red" />
<circle cx = "823.233" cy = "498.015" r = "5" fill = "red" />
<circle cx = "16.958" cy = "289.287" r = "5" fill = "red" />
<circle cx = "860.120" cy = "517.066" r = "5" fill = "red" />
<circle cx = "414.282" cy = "593.302" r = "5" fill = "red" />
<circle cx = "670.557" cy = "570.498" r = "5" fill = "red" />
<circle cx = "221.159" cy = "955.391" r = "5" fill = "red" />
<circle cx = "434.970" cy = "306.899" r = "5" fill = "red" />
<circle cx = "441.619" cy = "899.476" r = "5" fill = "red" />
<circle cx = "419.862" cy = "255.849" r = "5" fill = "red" />
<circle cx = "451.594" cy = "111.019" r = "5" fill = "red" />
<circle cx = "153.078" cy = "82.334" r = "5" fill = "red" />
<circle cx = "296.842" cy = "287.704" r = "5" fill = "red" />
<circle cx = "610.435" cy = "11.645" r = "5" fill = "red" />
<circle cx = "26.888" cy = "630.192" r = "5" fill = "red" />
<circle cx = "556.672" cy = "841.751" r = "5" fill = "red" />
<circle cx = "293.195" cy = "456.477" r = "5" fill = "red" />
<circle cx = "60.518" cy = "507.865" r = "5" fill = "red" />
<circle cx = "345.101" cy = "978.152" r = "5" fill = "red" />
<circle cx = "506.653" cy = "864.628" r = "5" fill = "red" />
<circle cx = "491.467" cy = "784.182" r = "5" fill = "red" />
<circle cx = "332.895" cy = "152.631" r = "5" fill = "red" />
<circle cx = "552.975" cy = "457.587" r = "5" fill = "red" />
<circle cx = "873.499" cy = "89.286" r = "5" fill = "red" />
<circle cx = "645.409" cy = "506.741" r = "5" fill = "red" />
<circle cx = "952.414" cy = "847.626" r = "5" fill = "red" />
<circle cx = "649.501" cy = "213.424" r = "5" fill = "red" />
<circle cx = "427.302" cy = "613.703" r = "5" fill = "red" />
<circle cx = "664.360" cy = "434.148" r = "5" fill = "red" />
<circle cx = "504.131" cy = "655.866" r = "5" fill = "red" />
<circle cx = "763.349" cy = "879.629" r = "5" fill = "red" />
<circle cx = "350.414" cy = "865.248" r = "5" fill = "red" />
<circle cx = "950.039" cy = "980.645" r = "5" fill = "red" />
<circle cx = "660.444" cy = "734.415" r = "5" fill = "red" />
<circle cx = "295.976" cy = "710.750" r = "5" fill = "red" />
<circle cx = "552.052" cy = "528.287" r = "5" fill = "red" />
<circle cx = "349.860" cy = "253.943" r = "5" fill = "red" />
<circle cx = "469.227" cy = "424.630" r = "5" fill = "red" />
<circle cx = "588.607" cy = "265.157" r = "5" fill = "red" />
<circle cx = "815.708" cy = "773.709" r = "5" fill = "red" />
<circle cx = "672.643" cy = "746.815" r = "5" fill = "red" />
<circle cx = "255.367" cy = "515.462" r = "5" fill = "red" />
<circle cx = "299.873" cy = "462.380" r = "5" fill = "red" />
<circle cx = "599.953" cy = "492.737" r = "5" fill = "red" />
<circle cx = "802.646" cy = "810.986" r = "5" fill = "red" />
<circle cx = "197.523" cy = "275.728" r = "5" fill = "red" />
<circle cx = "87.768" cy = "613.809" r = "5" fill = "red" />
<circle cx = "298.908" cy = "341.418" r = "5" fill = "red" />
<circle cx = "967.441" cy = "206.767" r = "5" fill = "red" />
<circle cx = "296.914" cy = "546.375" r = "5" fill = "red" />
<circle cx = "53.155" cy = "998.765" r = "5" fill = "red" />
<circle cx = "749.583" cy = "936.184" r = "5" fill = "red" />
<circle cx = "373.926" cy = "129.429" r = "5" fill = "red" />
<circle cx = "993.065" cy = "985.257" r = "5" fill = "red" />
<circle cx = "990.455" cy = "357.507" r = "5" fill = "red" />
<circle cx = "939.053" cy = "112.087" r = "5" fill = "red" />
<circle cx = "570.785" cy = "11.632" r = "5" fill = "red" />
<circle cx = "255.922" cy = "369.368" r = "5" fill = "red" />
<circle cx = "783.007" cy = "264.929" r = "5" fill = "red" />
<circle cx = "293.413" cy = "726.765" r = "5" fill = "red" />
<circle cx = "755.031" cy = "634.711" r = "5" fill = "red" />
<circle cx = "888.121" cy = "920.019" r = "5" fill = "red" />
<circle cx = "48.367" cy = "27.455" r = "5" fill = "red" />
<circle cx = "957.188" cy = "364.738" r = "5" fill = "red" />
<circle cx = "898.579" cy = "985.110" r = "5" fill = "red" />
<circle cx = "928.967" cy = "91.805" r = "5" fill = "red" />
<circle cx = "939.564" cy = "153.169" r = "5" fill = "red" />
<circle cx = "462.410" cy = "919.900" r = "5" fill = "red" />
<circle cx = "724.161" cy = "832.012" r = "5" fill = "red" />
<circle cx = "988.010" cy = "296.183" r = "5" fill = "red" />
<circle cx = "625.280" cy = "233.705" r = "5" fill = "red" />
<circle cx = "713.446" cy = "362.462" r = "5" fill = "red" />
<circle cx = "602.650" cy = "499.679" r = "5" fill = "red" />
<circle cx = "836.160" cy = "341.352" r = "5" fill = "red" />
<circle cx = "386.882" cy = "437.506" r = "5" fill = "red" />
<circle cx = "989.018" cy = "210.797" r = "5" fill = "red" />
<circle cx = "502.938" cy = "824.909" r = "5" fill = "red" />
<circle cx = "847.758" cy = "516.487" r = "5" fill = "red" />
<circle cx = "987.237" cy = "891.275" r = "5" fill = "red" />
<circle cx = "996.236" cy = "246.082" r = "5" fill = "red" />
<circle cx = "276.770" cy = "26.725" r = "5" fill = "red" />
<circle cx = "389.606" cy = "170.312" r = "5" fill = "red" />
<circle cx = "524.887" cy = "121.720" r = "5" fill = "red" />
<circle cx = "170.905" cy = "916.594" r = "5" fill = "red" />
<circle cx = "662.911" cy = "980.633" r = "5" fill = "red" />
<circle cx = "344.081" cy = "639.561" r = "5" fill = "red" />
<circle cx = "328.348" cy = "541.849" r = "5" fill = "red" />
<circle cx = "773.885" cy = "611.507" r = "5" fill = "red" />
<circle cx = "68.801" cy = "77.247" r = "5" fill = "red" />
<circle cx = "642.695" cy = "614.035" r = "5" fill = "red" />
<circle cx = "813.133" cy = "47.344" r = "5" fill = "red" />
<circle cx = "674.599" cy = "434.909" r = "5" fill = "red" />
<circle cx = "209.357" cy = "558.506" r = "5" fill = "red" />
<circle cx = "193.393" cy = "759.726" r = "5" fill = "red" />
<circle cx = "653.023" cy = "937.831" r = "5" fill = "red" />
<circle cx = "864.973" cy = "124.802" r = "5" fill = "red" />
<circle cx = "581.373" cy = "707.557" r = "5" fill = "red" />
<circle cx = "874.716" cy = "878.364" r = "5" fill = "red" />
<circle cx = "956.782" cy = "527.945" r = "5" fill = "red" />
<circle cx = "501.791" cy = "219.290" r = "5" fill = "red" />
<circle cx = "85.253" cy = "57.227" r = "5" fill = "red" />
<circle cx = "922.160" cy = "363.547" r = "5" fill = "red" />
<circle cx = "84.971" cy = "517.353" r = "5" fill = "red" />
<circle cx = "342.233" cy = "148.683" r = "5" fill = "red" />
<circle cx = "807.174" cy = "255.481" r = "5" fill = "red" />
<circle cx = "984.020" cy = "102.729" r = "5" fill = "red" />
<circle cx = "489.594" cy = "5.216" r = "5" fill = "red" />
<circle cx = "71.879" cy = "673.122" r = "5" fill = "red" />
<circle cx = "527.033" cy = "598.113" r = "5" fill = "red" />
<circle cx = "727.411" cy = "504.460" r = "5" fill = "red" />
<circle cx = "668.442" cy = "918.140" r = "5" fill = "red" />
<circle cx = "101.911" cy = "958.950" r = "5" fill = "red" />
<circle cx = "725.681" cy = "197.284" r = "5" fill = "red" />
<circle cx = "879.123" cy = "995.801" r = "5" fill = "red" />
<circle cx = "359.536" cy = "521.309" r = "5" fill = "red" />
<circle cx = "424.255" cy = "342.275" r = "5" fill = "red" />
<circle cx = "24.280" cy = "699.613" r = "5" fill = "red" />
<circle cx = "537.083" cy = "94.104" r = "5" fill = "red" />
<circle cx = "289.334" cy = "612.966" r = "5" fill = "red" />
<circle cx = "59.991" cy = "739.603" r = "5" fill = "red" />
<circle cx = "306.744" cy = "495.303" r = "5" fill = "red" />
<circle cx = "747.668" cy = "244.184" r = "5" fill = "red" />
<circle cx = "839.328" cy = "972.776" r = "5" fill = "red" />
<circle cx = "308.816" cy = "151.207" r = "5" fill = "red" />
<circle cx = "585.190" cy = "503.587" r = "5" fill = "red" />
<circle cx = "137.275" cy = "503.461" r = "5" fill = "red" />
<circle cx = "521.469" cy = "216.309" r = "5" fill = "red" />
<circle cx = "794.951" cy = "975.148" r = "5" fill = "red" />
<circle cx = "348.787" cy = "984.369" r = "5" fill = "red" />
<circle cx = "155.178" cy = "455.782" r = "5" fill = "red" />
<circle cx = "222.877" cy = "437.772" r = "5" fill = "red" />
<circle cx = "369.724" cy = "504.596" r = "5" fill = "red" />
<circle cx = "83.924" cy = "304.771" r = "5" fill = "red" />
<circle cx = "586.382" cy = "446.635" r = "5" fill = "red" />
<circle cx = "923.221" cy = "132.645" r = "5" fill = "red" />
<circle cx = "105.248" cy = "472.907" r = "5" fill = "red" />
<circle cx = "747.192" cy = "122.658" r = "5" fill = "red" />
<circle cx = "338.311" cy = "184.403" r = "5" fill = "red" />
<circle cx = "859.114" cy = "912.357" r = "5" fill = "red" />
<circle cx = "808.990" cy = "68.273" r = "5" fill = "red" />
<circle cx = "870.020" cy = "269.865" r = "5" fill = "red" />
<circle cx = "903.401" cy = "955.840" r = "5" fill = "red" />
<circle cx = "848.295" cy = "409.792" r = "5" fill = "red" />
<circle cx = "314.870" cy = "766.048" r = "5" fill = "red" />
<circle cx = "625.724" cy = "608.224" r = "5" fill = "red" />
<circle cx = "566.943" cy = "532.482" r = "5" fill = "red" />
<circle cx = "461.996" cy = "944.280" r = "5" fill = "red" />
<circle cx = "286.166" cy = "291.513" r = "5" fill = "red" />
<circle cx = "827.535" cy = "867.674" r = "5" fill = "red" />
<circle cx = "720.305" cy = "705.095" r = "5" fill = "red" />
<circle cx = "363.307" cy = "536.082" r = "5" fill = "red" />
<circle cx = "365.475" cy = "379.838" r = "5" fill = "red" />
<circle cx = "682.213" cy = "547.014" r = "5" fill = "red" />
<circle cx = "776.058" cy = "556.952" r = "5" fill = "red" />
<circle cx = "848.033" cy = "344.478" r = "5" fill = "red" />
<circle cx = "185.349" cy = "889.640" r = "5" fill = "red" />
<circle cx = "782.889" cy = "915.457" r = "5" fill = "red" />
<circle cx = "337.721" cy = "127.129" r = "5" fill = "red" />
<circle cx = "972.554" cy = "512.559" r = "5" fill = "red" />
<circle cx = "403.212" cy = "526.801" r = "5" fill = "red" />
<circle cx = "428.353" cy = "594.250" r = "5" fill = "red" />
<circle cx = "307.137" cy = "420.064" r = "5" fill = "red" />
<circle cx = "91.433" cy = "184.461" r = "5" fill = "red" />
<circle cx = "459.850" cy = "255.885" r = "5" fill = "red" />
<circle cx = "977.397" cy = "497.257" r = "5" fill = "red" />
<circle cx = "717.381" cy = "478.218" r = "5" fill = "red" />
<circle cx = "136.472" cy = "876.269" r = "5" fill = "red" />
<circle cx = "339.200" cy = "892.706" r = "5" fill = "red" />
<circle cx = "638.156" cy = "113.658" r = "5" fill = "red" />
<circle cx = "308.134" cy = "446.933" r = "5" fill = "red" />
<circle cx = "117.085" cy = "248.092" r = "5" fill = "red" />
<circle cx = "141.757" cy = "76.388" r = "5" fill = "red" />
<circle cx = "738.580" cy = "678.250" r = "5" fill = "red" />
<circle cx = "664.159" cy = "357.614" r = "5" fill = "red" />
<circle cx = "145.737" cy = "323.898" r = "5" fill = "red" />
<circle cx = "902.209" cy = "393.407" r = "5" fill = "red" />
<circle cx = "840.090" cy = "62.813" r = "5" fill = "red" />
<circle cx = "920.860" cy = "804.606" r = "5" fill = "red" />
<circle cx = "653.493" cy = "713.335" r = "5" fill = "red" />
<circle cx = "921.910" cy = "729.942" r = "5" fill = "red" />
<circle cx = "113.683" cy = "245.683" r = "5" fill = "red" />
<circle cx = "490.474" cy = "591.385" r = "5" fill = "red" />
<circle cx = "383.403" cy = "682.168" r = "5" fill = "red" />
<circle cx = "340.283" cy = "884.371" r = "5" fill = "red" />
<circle cx = "47.873" cy = "818.112" r = "5" fill = "red" />
<circle cx = "863.796" cy = "628.688" r = "5" fill = "red" />
<circle cx = "589.285" cy = "424.441" r = "5" fill = "red" />
<circle cx = "224.556" cy = "957.289" r = "5" fill = "red" />
<circle cx = "373.749" cy = "358.696" r = "5" fill = "red" />
<circle cx = "462.570" cy = "424.395" r = "5" fill = "red" />
<circle cx = "984.319" cy = "533.498" r = "5" fill = "red" />
<circle cx = "726.062" cy = "129.355" r = "5" fill = "red" />
<circle cx = "600.520" cy = "277.319" r = "5" fill = "red" />
<circle cx = "154.864" cy = "696.616" r = "5" fill = "red" />
<circle cx = "157.738" cy = "299.493" r = "5" fill = "red" />
<circle cx = "529.507" cy = "611.380" r = "5" fill = "red" />
<circle cx = "154.507" cy = "3.728" r = "5" fill = "red" />
<circle cx = "166.294" cy = "860.069" r = "5" fill = "red" />
<circle cx = "469.406" cy = "48.110" r = "5" fill = "red" />
<circle cx = "358.770" cy = "83.390" r = "5" fill = "red" />
<circle cx = "95.221" cy = "944.649" r = "5" fill = "red" />
<circle cx = "598.510" cy = "803.434" r = "5" fill = "red" />
<circle cx = "192.305" cy = "910.609" r = "5" fill = "red" />
<circle cx = "777.270" cy = "145.892" r = "5" fill = "red" />
<circle cx = "338.217" cy = "444.304" r = "5" fill = "red" />
<circle cx = "701.370" cy = "701.799" r = "5" fill = "red" />
<circle cx = "317.174" cy = "667.323" r = "5" fill = "red" />
<circle cx = "464.799" cy = "508.030" r = "5" fill = "red" />
<circle cx = "651.064" cy = "734.206" r = "5" fill = "red" />
<circle cx = "452.888" cy = "430.090" r = "5" fill = "red" />
<circle cx = "215.539" cy = "497.831" r = "5" fill = "red" />
<circle cx = "45.094" cy = "586.062" r = "5" fill = "red" />
<circle cx = "942.414" cy = "936.676" r = "5" fill = "red" />
<circle cx = "209.407" cy = "42.686" r = "5" fill = "red" />
<circle cx = "466.442" cy = "633.015" r = "5" fill = "red" />
<circle cx = "987.570" cy = "171.120" r = "5" fill = "red" />
<circle cx = "237.885" cy = "448.905" r = "5" fill = "red" />
<circle cx = "231.418" cy = "843.529" r = "5" fill = "red" />
<circle cx = "435.335" cy = "575.939" r = "5" fill = "red" />
<circle cx = "88.078" cy = "49.635" r = "5" fill = "red" />
<circle cx = "231.494" cy = "372.097" r = "5" fill = "red" />
<circle cx = "993.661" cy = "522.118" r = "5" fill = "red" />
<circle cx = "927.906" cy = "109.416" r = "5" fill = "red" />
<circle cx = "240.093" cy = "147.620" r = "5" fill = "red" />
<circle cx = "14.734" cy = "925.563" r = "5" fill = "red" />
<circle cx = "405.087" cy = "994.807" r = "5" fill = "red" />
<circle cx = "832.062" cy = "841.122" r = "5" fill = "red" />
<circle cx = "504.903" cy = "51.368" r = "5" fill = "red" />
<circle cx = "304.998" cy = "658.422" r = "5" fill = "red" />
<circle cx = "761.890" cy = "872.785" r = "5" fill = "red" />
<circle cx = "121.332" cy = "970.302" r = "5" fill = "red" />
<circle cx = "961.515" cy = "532.590" r = "5" fill = "red" />
<circle cx = "402.195" cy = "397.652" r = "5" fill = "red" />
<circle cx = "802.913" cy = "491.543" r = "5" fill = "red" />
<circle cx = "191.397" cy = "594.141" r = "5" fill = "red" />
<circle cx = "846.140" cy = "191.589" r = "5" fill = "red" />
<circle cx = "669.954" cy = "244.402" r = "5" fill = "red" />
<circle cx = "830.833" cy = "789.428" r = "5" fill = "red" />
<circle cx = "76.332" cy = "18.370" r = "5" fill = "red" />
<circle cx = "93.200" cy = "979.564" r = "5" fill = "red" />
<circle cx = "824.981" cy = "874.049" r = "5" fill = "red" />
<circle cx = "107.151" cy = "167.911" r = "5" fill = "red" />
<circle cx = "7.646" cy = "212.367" r = "5" fill = "red" />
<circle cx = "503.198" cy = "31.938" r = "5" fill = "red" />
<circle cx = "26.677" cy = "479.374" r = "5" fill = "red" />
<circle cx = "908.453" cy = "445.029" r = "5" fill = "red" />
<circle cx = "7.404" cy = "138.043" r = "5" fill = "red" />
<circle cx = "446.616" cy = "337.736" r = "5" fill = "red" />
<circle cx = "522.414" cy = "480.522" r = "5" fill = "red" />
<circle cx = "880.472" cy = "53.733" r = "5" fill = "red" />
<circle cx = "823.258" cy = "152.909" r = "5" fill = "red" />
<circle cx = "418.960" cy = "873.068" r = "5" fill = "red" />
<circle cx = "361.638" cy = "59.008" r = "5" fill = "red" />
<circle cx = "587.655" cy = "98.944" r = "5" fill = "red" />
<circle cx = "171.292" cy = "600.983" r = "5" fill = "red" />
<circle cx = "540.173" cy = "289.137" r = "5" fill = "red" />
<circle cx = "69.651" cy = "321.876" r = "5" fill = "red" />
<circle cx = "590.198" cy = "784.031" r = "5" fill = "red" />
<circle cx = "238.804" cy = "825.332" r = "5" fill = "red" />
<circle cx = "879.035" cy = "382.051" r = "5" fill = "red" />
<circle cx = "783.194" cy = "497.498" r = "5" fill = "red" />
<circle cx = "963.160" cy = "203.694" r = "5" fill = "red" />
<circle cx = "916.837" cy = "34.407" r = "5" fill = "red" />
<circle cx = "811.935" cy = "262.688" r = "5" fill = "red" />
<circle cx = "487.503" cy = "286.419" r = "5" fill = "red" />
<circle cx = "68.000" cy = "252.594" r = "5" fill = "red" />
<circle cx = "805.855" cy = "877.781" r = "5" fill = "red" />
<circle cx = "903.773" cy = "991.926" r = "5" fill = "red" />
<circle cx = "496.145" cy = "837.497" r = "5" fill = "red" />
<circle cx = "934.197" cy = "256.003" r = "5" fill = "red" />
<circle cx = "854.737" cy = "306.289" r = "5" fill = "red" />
<circle cx = "654.328" cy = "258.777" r = "5" fill = "red" />
<circle cx = "781.899" cy = "154.253" r = "5" fill = "red" />
<circle cx = "831.276" cy = "435.357" r = "5" fill = "red" />
<circle cx = "187.990" cy = "924.410" r = "5" fill = "red" />
<circle cx = "604.541" cy = "802.173" r = "5" fill = "red" />
<circle cx = "98.449" cy = "201.596" r = "5" fill = "red" />
<circle cx = "880.864" cy = "324.549" r = "5" fill = "red" />
<circle cx = "395.084" cy = "970.542" r = "5" fill = "red" />
<circle cx = "127.076" cy = "913.224" r = "5" fill = "red" />
<circle cx = "740.853" cy = "650.620" r = "5" fill = "red" />
<circle cx = "410.803" cy = "399.501" r = "5" fill = "red" />
<circle cx = "931.530" cy = "973.573" r = "5" fill = "red" />
<circle cx = "527.379" cy = "625.478" r = "5" fill = "red" />
<circle cx = "181.869" cy = "813.808" r = "5" fill = "red" />
<circle cx = "327.132" cy = "155.074" r = "5" fill = "red" />
<circle cx = "643.185" cy = "278.163" r = "5" fill = "red" />
<circle cx = "697.270" cy = "944.108" r = "5" fill = "red" />
<circle cx = "793.926" cy = "309.520" r = "5" fill = "red" />
<circle cx = "246.786" cy = "192.779" r = "5" fill = "red" />
<circle cx = "542.673" cy = "629.554" r = "5" fill = "red" />
<circle cx = "247.198" cy = "919.089" r = "5" fill = "red" />
<circle cx = "543.881" cy = "591.855" r = "5" fill = "red" />
<circle cx = "433.328" cy = "813.982" r = "5" fill = "red" />
<circle cx = "42.428" cy = "593.013" r = "5" fill = "red" />
<circle cx = "128.733" cy = "679.683" r = "5" fill = "red" />
<circle cx = "748.528" cy = "795.232" r = "5" fill = "red" />
<circle cx = "735.897" cy = "417.125" r = "5" fill = "red" />
<circle cx = "609.246" cy = "700.695" r = "5" fill = "red" />
<circle cx = "736.716" cy = "282.815" r = "5" fill = "red" />
<circle cx = "681.278" cy = "793.555" r = "5" fill = "red" />
<circle cx = "352.022" cy = "501.113" r = "5" fill = "red" />
<circle cx = "606.939" cy = "994.775" r = "5" fill = "red" />
<circle cx = "267.819" cy = "986.519" r = "5" fill = "red" />
<circle cx = "827.091" cy = "501.404" r = "5" fill = "red" />
<circle cx = "747.211" cy = "686.608" r = "5" fill = "red" />
<circle cx = "387.848" cy = "427.828" r = "5" fill = "red" />
<circle cx = "553.145" cy = "507.983" r = "5" fill = "red" />
<circle cx = "430.759" cy = "150.502" r = "5" fill = "red" />
<circle cx = "246.696" cy = "207.048" r = "5" fill = "red" />
<circle cx = "701.457" cy = "406.525" r = "5" fill = "red" />
<circle cx = "161.526" cy = "399.138" r = "5" fill = "red" />
<circle cx = "251.859" cy = "584.355" r = "5" fill = "red" />
<circle cx = "644.323" cy = "976.287" r = "5" fill = "red" />
<circle cx = "870.556" cy = "787.547" r = "5" fill = "red" />
<circle cx = "404.138" cy = "86.270" r = "5" fill = "red" />
<circle cx = "893.253" cy = "788.828" r = "5" fill = "red" />
<circle cx = "196.092" cy = "410.613" r = "5" fill = "red" />
<circle cx = "190.424" cy = "68.558" r = "5" fill = "red" />
<circle cx = "27.810" cy = "940.248" r = "5" fill = "red" />
<circle cx = "133.396" cy = "397.827" r = "5" fill = "red" />
<circle cx = "791.483" cy = "878.452" r = "5" fill = "red" />
<circle cx = "272.046" cy = "545.775" r = "5" fill = "red" />
<circle cx = "728.836" cy = "495.630" r = "5" fill = "red" />
<circle cx = "643.385" cy = "77.218" r = "5" fill = "red" />
<circle cx = "849.914" cy = "873.465" r = "5" fill = "red" />
<circle cx = "583.326" cy = "199.340" r = "5" fill = "red" />
<circle cx = "172.941" cy = "668.503" r = "5" fill = "red" />
<circle cx = "801.624" cy = "384.722" r = "5" fill = "red" />
<circle cx = "350.531" cy = "621.506" r = "5" fill = "red" />
<circle cx = "444.087" cy = "310.415" r = "5" fill = "red" />
<circle cx = "71.605" cy = "812.659" r = "5" fill = "red" />
<circle cx = "17.027" cy = "523.795" r = "5" fill = "red" />
<circle cx = "546.450" cy = "937.679" r = "5" fill = "red" />
<circle cx = "237.083" cy = "852.914" r = "5" fill = "red" />
<circle cx = "904.389" cy = "749.627" r = "5" fill = "red" />
<circle cx = "25.605" cy = "942.520" r = "5" fill = "red" />
<circle cx = "380.880" cy = "903.360" r = "5" fill = "red" />
<circle cx = "431.193" cy = "437.664" r = "5" fill = "red" />
<circle cx = "563.542" cy = "228.609" r = "5" fill = "red" />
<circle cx = "392.879" cy = "89.999" r = "5" fill = "red" />
<circle cx = "89.022" cy = "293.574" r = "5" fill = "red" />
<circle cx = "592.723" cy = "474.425" r = "5" fill = "red" />
<circle cx = "250.960" cy = "840.065" r = "5" fill = "red" />
<circle cx = "276.771" cy = "327.206" r = "5" fill = "red" />
<circle cx = "333.512" cy = "847.331" r = "5" fill = "red" />
<circle cx = "140.107" cy = "679.755" r = "5" fill = "red" />
<circle cx = "784.929" cy = "453.731" r = "5" fill = "red" />
<circle cx = "725.918" cy = "449.495" r = "5" fill = "red" />
<circle cx = "954.727" cy = "183.967" r = "5" fill = "red" />
<circle cx = "935.145" cy = "446.221" r = "5" fill = "red" />
<circle cx = "780.074" cy = "489.082" r = "5" fill = "red" />
<circle cx = "400.990" cy = "84.540" r = "5" fill = "red" />
<circle cx = "481.904" cy = "738.641" r = "5" fill = "red" />
<circle cx = "359.630" cy = "332.484" r = "5" fill = "red" />
<circle cx = "569.863" cy = "875.947" r = "5" fill = "red" />
<circle cx = "123.739" cy = "825.396" r = "5" fill = "red" />
<circle cx = "160.627" cy = "68.980" r = "5" fill = "red" />
<circle cx = "866.242" cy = "942.113" r = "5" fill = "red" />
<circle cx = "166.196" cy = "526.644" r = "5" fill = "red" />
<circle cx = "455.657" cy = "531.296" r = "5" fill = "red" />
<circle cx = "661.106" cy = "202.631" r = "5" fill = "red" />
<circle cx = "262.317" cy = "91.996" r = "5" fill = "red" />
<circle cx = "733.447" cy = "174.268" r = "5" fill = "red" />
<circle cx = "709.628" cy = "546.865" r = "5" fill = "red" />
<circle cx = "273.788" cy = "176.428" r = "5" fill = "red" />
<circle cx = "32.878" cy = "63.940" r = "5" fill = "red" />
<circle cx = "464.397" cy = "83.418" r = "5" fill = "red" />
<circle cx = "293.139" cy = "352.514" r = "5" fill = "red" />
<circle cx = "699.389" cy = "12.855" r = "5" fill = "red" />
<circle cx = "944.530" cy = "260.758" r = "5" fill = "red" />
<circle cx = "7.131" cy = "664.731" r = "5" fill = "red" />
<circle cx = "850.943" cy = "45.085" r = "5" fill = "red" />
<circle cx = "755.200" cy = "149.687" r = "5" fill = "red" />
<circle cx = "606.230" cy = "345.895" r = "5" fill = "red" />
<circle cx = "388.068" cy = "228.283" r = "5" fill = "red" />
<circle cx = "49.759" cy = "56.233" r = "5" fill = "red" />
<circle cx = "338.068" cy = "86.259" r = "5" fill = "red" />
<circle cx = "980.028" cy = "980.957" r = "5" fill = "red" />
<circle cx = "974.598" cy = "578.638" r = "5" fill = "red" />
<circle cx = "417.013" cy = "628.258" r = "5" fill = "red" />
<circle cx = "288.050" cy = "238.659" r = "5" fill = "red" />
<circle cx = "786.061" cy = "363.745" r = "5" fill = "red" />
<circle cx = "192.561" cy = "289.231" r = "5" fill = "red" />
<circle cx = "885.051" cy = "665.234" r = "5" fill = "red" />
<circle cx = "844.478" cy = "401.731" r = "5" fill = "red" />
<circle cx = "228.300" cy = "774.531" r = "5" fill = "red" />
<circle cx = "531.729" cy = "960.271" r = "5" fill = "red" />
<circle cx = "534.228" cy = "450.358" r = "5" fill = "red" />
<circle cx = "487.116" cy = "245.306" r = "5" fill = "red" />
<circle cx = "653.072" cy = "439.010" r = "5" fill = "red" />
<circle cx = "922.033" cy = "348.773" r = "5" fill = "red" />
<circle cx = "156.308" cy = "443.180" r = "5" fill = "red" />
<circle cx = "66.963" cy = "146.024" r = "5" fill = "red" />
<circle cx = "307.562" cy = "665.799" r = "5" fill = "red" />
<circle cx = "765.915" cy = "941.071" r = "5" fill = "red" />
<circle cx = "374.423" cy = "405.330" r = "5" fill = "red" />
<circle cx = "262.899" cy = "768.292" r = "5" fill = "red" />
<circle cx = "823.578" cy = "95.161" r = "5" fill = "red" />
<circle cx = "120.355" cy = "338.538" r = "5" fill = "red" />
<circle cx = "835.218" cy = "507.672" r = "5" fill = "red" />
<circle cx = "794.332" cy = "194.747" r = "5" fill = "red" />
<circle cx = "48.965" cy = "710.063" r = "5" fill = "red" />
<circle cx = "392.812" cy = "319.011" r = "5" fill = "red" />
<circle cx = "578.731" cy = "28.108" r = "5" fill = "red" />
<circle cx = "870.816" cy = "638.325" r = "5" fill = "red" />
<circle cx = "945.770" cy = "311.865" r = "5" fill = "red" />
<circle cx = "421.602" cy = "85.837" r = "5" fill = "red" />
<circle cx = "663.669" cy = "130.570" r = "5" fill = "red" />
<circle cx = "828.445" cy = "405.411" r = "5" fill = "red" />
<circle cx = "163.047" cy = "10.117" r = "5" fill = "red" />
<circle cx = "640.483" cy = "907.415" r = "5" fill = "red" />
<circle cx = "848.984" cy = "733.124" r = "5" fill = "red" />
<circle cx = "284.047" cy = "27.028" r = "5" fill = "red" />
<circle cx = "373.340" cy = "262.840" r = "5" fill = "red" />
<circle cx = "779.989" cy = "801.711" r = "5" fill = "red" />
<circle cx = "120.871" cy = "23.864" r = "5" fill = "red" />
<circle cx = "442.700" cy = "786.507" r = "5" fill = "red" />
<circle cx = "398.487" cy = "791.946" r = "5" fill = "red" />
<circle cx = "225.240" cy = "944.400" r = "5" fill = "red" />
<circle cx = "163.003" cy = "701.326" r = "5" fill = "red" />
<circle cx = "463.595" cy = "605.148" r = "5" fill = "red" />
<circle cx = "25.279" cy = "814.450" r = "5" fill = "red" />
<circle cx = "604.329" cy = "196.166" r = "5" fill = "red" />
<circle cx = "346.819" cy = "785.892" r = "5" fill = "red" />
<circle cx = "36.139" cy = "716.791" r = "5" fill = "red" />
<circle cx = "682.928" cy = "277.342" r = "5" fill = "red" />
<circle cx = "896.274" cy = "203.169" r = "5" fill = "red" />
<circle cx = "71.177" cy = "611.943" r = "5" fill = "red" />
<circle cx = "177.485" cy = "857.209" r = "5" fill = "red" />
<circle cx = "657.560" cy = "478.397" r = "5" fill = "red" />
<circle cx = "517.402" cy = "629.541" r = "5" fill = "red" />
<circle cx = "908.453" cy = "566.989" r = "5" fill = "red" />
<circle cx = "745.500" cy = "26.694" r = "5" fill = "red" />
<circle cx = "663.736" cy = "636.260" r = "5" fill = "red" />
<circle cx = "931.429" cy = "670.438" r = "5" fill = "red" />
<circle cx = "876.425" cy = "192.460" r = "5" fill = "red" />
<circle cx = "92.455" cy = "560.796" r = "5" fill = "red" />
<circle cx = "993.548" cy = "714.609" r = "5" fill = "red" />
<circle cx = "416.170" cy = "884.083" r = "5" fill = "red" />
</svg>
